<svg width="40" height="40" fill="none" xmlns="http://www.w3.org/2000/svg"><g clip-path="url(#clip0_470_18926)" stroke="#fff" stroke-width="1.4" stroke-miterlimit="10"><path d="M5.263 21.831h4.658v-.478a2.199 2.199 0 00-1.79-2.16l-2.866-.539" stroke-linecap="round" stroke-linejoin="round"/><path d="M33.297 14.928v-1.833a.793.793 0 00-.793-.794h-3.041L27.039 7.54a2.709 2.709 0 00-2.416-1.481H9.5c-1.02 0-1.953.573-2.416 1.48L4.66 12.3H1.62a.793.793 0 00-.793.793v1.834l1.643 1.94V25.2a2.439 2.439 0 104.878 0v-.356M26.94 12.19H7.18" stroke-linecap="round" stroke-linejoin="round"/><path d="M24.476 13.996l-1.84 1.584a1.825 1.825 0 01-1.193.441h-8.76c-.438 0-.86-.157-1.193-.44l-1.84-1.585m10.169 7.835h-5.516m5.515 3.067H5.264" stroke-linecap="round" stroke-linejoin="round"/><path d="M30.976 33.852a8.33 8.33 0 100-16.66 8.33 8.33 0 000 16.66zm-2.563-4.89l5.197-6.792"/><path d="M28.904 24.622a1.27 1.27 0 100-2.54 1.27 1.27 0 000 2.54zm4.144 4.252a1.27 1.27 0 100-2.54 1.27 1.27 0 000 2.54z"/></g><defs><clipPath id="clip0_470_18926"><path fill="#fff" d="M0 0h40v40H0z"/></clipPath></defs></svg>