<svg width="40" height="40" fill="none" xmlns="http://www.w3.org/2000/svg"><path d="M9.595 33.663h4.163v-.427c0-.944-.672-1.756-1.6-1.93l-2.563-.482" stroke="#fff" stroke-width="1.4" stroke-miterlimit="10" stroke-linecap="round" stroke-linejoin="round"/><path d="M28.826 36.358v.318a2.18 2.18 0 104.361 0v-7.448l1.47-1.735v-1.64a.71.71 0 00-.71-.709H31.23l-2.166-4.257a2.423 2.423 0 00-2.161-1.325h-13.52c-.911 0-1.746.513-2.16 1.325l-2.167 4.257H6.338a.71.71 0 00-.71.71v1.64l1.47 1.734v7.448a2.18 2.18 0 104.36 0v-.318m17.513-11.312H11.307" stroke="#fff" stroke-width="1.4" stroke-miterlimit="10" stroke-linecap="round" stroke-linejoin="round"/><path d="M26.77 26.661l-1.645 1.417a1.629 1.629 0 01-1.066.394h-7.832a1.64 1.64 0 01-1.065-.394l-1.647-1.417m9.092 7.003h-4.932m13.01 2.742H9.595m21.092-2.743h-4.162v-.427c0-.944.673-1.756 1.6-1.93l2.562-.482M20 1.09c-3.087 0-5.61 6.63-5.789 14.99-1.597-1.51-3.665-2.421-5.926-2.421-2.327 0-4.452.966-6.067 2.558C2.69 7.792 10.47 1.09 19.999 1.09z" stroke="#fff" stroke-width="1.4" stroke-miterlimit="10" stroke-linecap="round" stroke-linejoin="round"/><path d="M37.778 16.165c-1.61-1.56-3.714-2.506-6.015-2.506-2.279 0-4.364.926-5.967 2.46-.003-.005-.008-.008-.01-.011-.174-8.373-2.698-15.017-5.787-15.017 9.509 0 17.277 6.674 17.779 15.074z" stroke="#fff" stroke-width="1.4" stroke-miterlimit="10" stroke-linecap="round" stroke-linejoin="round"/><path d="M25.785 16.108c-1.557-1.527-3.577-2.45-5.786-2.45-2.203 0-4.218.918-5.774 2.436l-.014-.013C14.39 7.72 16.913 1.09 20 1.09c3.089 0 5.613 6.644 5.786 15.017zM20 13.716v4.042" stroke="#fff" stroke-width="1.4" stroke-miterlimit="10" stroke-linecap="round" stroke-linejoin="round"/></svg>