<svg width="54" height="54" fill="none" xmlns="http://www.w3.org/2000/svg"><path d="M8.49 30.009h5.516v-.562c0-1.254-.89-2.326-2.118-2.56l-3.398-.639" stroke="#E82932" stroke-width="2" stroke-miterlimit="10" stroke-linecap="round" stroke-linejoin="round"/><path d="M31.426 11.325H13.513c-1.21 0-2.317.683-2.862 1.755l-2.87 5.646H4.167a.945.945 0 00-.942.942v2.17l1.945 2.3v9.873a2.887 2.887 0 105.775 0v-.424m7.435-14.999H6.952" stroke="#E82932" stroke-width="2" stroke-miterlimit="10" stroke-linecap="round" stroke-linejoin="round"/><path d="M17.273 23.135c-.518 0-1.02-.19-1.409-.519l-2.179-1.876m3.589 12.908H9.873m23.93 9.648c8.065 0 14.603-6.537 14.603-14.602 0-8.064-6.538-14.602-14.602-14.602-8.065 0-14.603 6.537-14.603 14.602 0 8.065 6.538 14.602 14.602 14.602zm10.574-4.037l6.216 6.216" stroke="#E82932" stroke-width="2" stroke-miterlimit="10" stroke-linecap="round" stroke-linejoin="round"/></svg>