<svg width="54" height="54" fill="none" xmlns="http://www.w3.org/2000/svg"><path d="M43.02 45.767H15.684a3.631 3.631 0 01-3.631-3.632V6.87a3.631 3.631 0 013.63-3.63h22.492l8.476 8.476V42.13a3.628 3.628 0 01-3.63 3.638z" stroke="#E82932" stroke-width="2" stroke-miterlimit="10" stroke-linecap="round" stroke-linejoin="round"/><path d="M46.657 11.716h-8.483V3.24l8.483 8.477zm-5.201 35.091a3.631 3.631 0 01-3.63 3.631H10.482a3.631 3.631 0 01-3.631-3.631V11.548a3.631 3.631 0 013.63-3.631" stroke="#E82932" stroke-width="2" stroke-miterlimit="10" stroke-linecap="round" stroke-linejoin="round"/><path d="M24.528 27.012a2.454 2.454 0 100-4.907 2.454 2.454 0 000 4.907zm9.842 5.089a2.454 2.454 0 100-4.908 2.454 2.454 0 000 4.908zm-9.032.66l8.352-11.136" stroke="#E82932" stroke-width="2" stroke-miterlimit="10" stroke-linecap="round" stroke-linejoin="round"/></svg>