<svg width="54" height="54" fill="none" xmlns="http://www.w3.org/2000/svg"><path d="M38.4 50c6.801 0 12.315-5.513 12.315-12.315 0-6.8-5.514-12.314-12.315-12.314-6.8 0-12.314 5.513-12.314 12.314C26.086 44.487 31.599 50 38.4 50z" stroke="#E82932" stroke-width="2" stroke-miterlimit="10" stroke-linecap="round" stroke-linejoin="round"/><path d="M23.459 43.621H7.93a4.35 4.35 0 01-4.353-4.353V11.482A4.35 4.35 0 017.93 7.129h31.482a4.35 4.35 0 014.353 4.353v11.91M12.63 11.086V3.528m10.827 7.558V3.528m10.898 7.558V3.528M9.031 19.618h4.836m3.34 0h4.843M9.031 26.653h4.836m3.34 0h4.843M9.031 34.172h4.836m3.34 0h4.843m3.34-14.554h4.836m3.34 0h4.836m-4.291 21.827h5.92m-.585-3.133h-3.253v-6.497h3.253a3.253 3.253 0 013.253 3.252 3.256 3.256 0 01-3.253 3.245zm-3.253-4.456v9.703" stroke="#E82932" stroke-width="2" stroke-miterlimit="10" stroke-linecap="round" stroke-linejoin="round"/></svg>