<svg width="54" height="54" fill="none" xmlns="http://www.w3.org/2000/svg"><path d="M45.932 17.263a20.052 20.052 0 00-.535-1.03l.278.064.884-.469c-.152-.286-.31-.568-.476-.845.187-.498.407-1.007.642-1.553.169-.39.346-.8.524-1.236a.626.626 0 011.004-.222m-2.32 5.291a1 1 0 01-1.14-.498 19.257 19.257 0 00-1.252-2.029 1.001 1.001 0 01-.12-.227l-.219.162m2.73 2.592a1 1 0 00.717-.74c.196-.845.533-1.626.96-2.615.111-.256.228-.527.35-.816m-2.027 4.171a20.53 20.53 0 011.32 3.54m-4.05-6.132l.22-.163a1 1 0 01.157-.97m-.377 1.133a14.972 14.972 0 00-.825-.993c-.824-.937-1.639-1.863-1.797-3.396m2.622 4.39c3.995 5.373 4.905 12.767 2.39 19.147-2.55 6.47-8.25 11.146-15.061 12.353-.84.125-.619 1.395.21 1.226.633-.114 1.25-.26 1.865-.43.873 1.704 2.346 2.797 4.054 2.997m6.919-36.427a11.38 11.38 0 01.589.76c.253.35.495.71.723 1.076l.09-.276a22.149 22.149 0 00-.62-.936c1.153-1.312 1.644-2.933 1.337-4.517m-2.12 3.893a28.28 28.28 0 00-.431-.499l-.007-.008c-.28-.317-.527-.599-.749-.894-.43-.573-.734-1.16-.817-1.956m2.005 3.357a.94.94 0 01.03-.036c.974-1.107 1.348-2.421 1.107-3.666m.982-.19c-.345-1.762-1.653-3.39-3.826-4.571m3.826 4.57l-.982.192s0 0 0 0m.982-.192l-.982.19v.001m-2.844-4.761a.608.608 0 00-.903.494c-.057.571-.13 1.1-.2 1.602-.155 1.128-.29 2.114-.19 3.111m1.293-5.207l-.294.546-.005.009-.175.325c.11.06.24.06.35.003a.402.402 0 00.216-.289l.001-.01v.01c-.02.194-.042.387-.065.578m-.028-1.172l-.296.546-.005.009-.176.324c.175.095.344.193.505.293m-1.32 4.035l.994-.103v.002m-.994.101l.995-.1v-.001M36.66 49.965c1.776.208 3.759-.512 5.493-2.28.322-.329.251-.83-.187-1.019-.546-.235-1.043-.472-1.513-.696a25.987 25.987 0 00-1.555-.702c-.252.16-.507.314-.764.463l-.503-.864.067-.306a20.908 20.908 0 01-1.03.573m-.008 4.831l.116-.993m-.116.993l.117-.993s0 0 0 0m-.11-3.838a1 1 0 01.46-1.131 20.254 20.254 0 002.029-1.343 1 1 0 011.223.012m-3.712 2.462a1 1 0 00.748.71c.596.131 1.178.363 1.854.673.223.102.465.218.722.34.332.159.69.33 1.062.498m-4.386-2.22a20.81 20.81 0 01-3.194 1.333m6.906-3.796a21.1 21.1 0 01-1.883 1.392c.094.029.187.06.28.091.334-.223.662-.455.983-.698 1.439 1.245 3.207 1.712 4.86 1.26 1.723-.472 3.248-1.897 4.26-4.167.176-.385-.068-.867-.547-.871a33.653 33.653 0 01-1.82-.081 25.762 25.762 0 00-1.518-.068c-.173.239-.35.474-.53.706l-.79-.614-.051-.315a21.896 21.896 0 01-.747.917m-2.497 2.448l.034.029c1.224 1.059 2.656 1.403 3.942 1.051h0c1.238-.339 2.452-1.333 3.36-3.088m-7.336 2.008a21.008 21.008 0 002.497-2.448m0 0a1 1 0 01.01-1.216c.506-.65.974-1.323 1.397-2.025a1 1 0 011.14-.442m-2.547 3.683a1 1 0 00.96.385c.593-.097 1.211-.093 1.954-.053.199.01.41.024.631.038.401.026.836.053 1.294.07m-2.292-4.123a21.134 21.134 0 01-1.25 2.016 8.92 8.92 0 01.295-.018c.234-.339.458-.685.671-1.04 1.814.585 3.627.32 4.98-.754 1.401-1.112 2.237-3.031 2.293-5.516.011-.438-.326-.777-.843-.585a88.7 88.7 0 01-1.034.37c-.704.247-1.348.474-1.946.732-.073.296-.152.591-.237.885l-.96-.279-.166-.272-.058.208c-.089.31-.185.617-.289.924m-1.456 3.328l.023.008c1.541.496 2.996.252 4.05-.586h.001c1.008-.8 1.731-2.203 1.887-4.188m-5.96 4.767c.41-.756.779-1.542 1.1-2.355h0c.126-.323.245-.648.355-.974m0 0a1 1 0 01-.448-1.139c.228-.786.407-1.58.535-2.376a1 1 0 01.886-.836m-.973 4.35a1 1 0 001.03-.003c.823-.497 1.723-.815 2.9-1.23l.575-.204m-3.532-2.913a21.39 21.39 0 01-.397 2.313c.09-.046.18-.09.272-.135.087-.393.163-.787.226-1.183 1.892-.14 3.474-1.063 4.328-2.56.888-1.554.993-3.662.094-5.98a.617.617 0 00-1.005-.227c-.367.34-.72.652-1.057.948-.476.42-.918.81-1.32 1.21.044.298.08.597.112.898l-.994.104-.243-.182a23.277 23.277 0 01.095 1.171m-.11 3.623l.027-.002c1.607-.119 2.865-.89 3.532-2.059h0c.645-1.127.82-2.715.218-4.594m-3.778 6.655a21.5 21.5 0 00.111-3.623m0 0a1 1 0 01-.847-.885 21.437 21.437 0 00-.397-2.435 1 1 0 01.508-1.102l.025-.013m.711 4.435a1 1 0 00.948-.39c.358-.478.793-.916 1.324-1.4.233-.214.477-.429.74-.66l.112-.1c.175-.154.356-.314.543-.482m-4.378-1.403l.032.12a21.072 21.072 0 01.46 2.194c.06-.07.123-.139.186-.207a22.583 22.583 0 00-.235-1.21c1.76-.931 2.862-2.5 3.005-4.283.15-1.792-.645-3.745-2.447-5.445m-1.001 8.831c1.485-.794 2.34-2.075 2.45-3.466l.001-.004c.11-1.301-.402-2.812-1.744-4.241m.294-1.12l-.426.456-.002.002-.255.272a.374.374 0 00.605-.13l-.216.52m.294-1.12l-.43.455v.001l-.256.271c.138.13.268.261.392.393m3.67 9.114a9.5 9.5 0 00-.187-.529l.348-.135h.001l.583-.227-.581.228-.002.001-.347.136a.372.372 0 00.256.225.39.39 0 00.35-.082c-.143.132-.283.26-.42.383zm-.245 9.568c.014-.184.024-.373.028-.568v-.002.002c0 .038.016.17.16.282.075.058.16.09.238.099a.3.3 0 00.102-.004l.006-.002s0 0 0 0h0l-.005.002h0l-.53.191zm-3.669 8.89c.086-.167.17-.34.25-.521l.004-.01h0c0 .004-.002.007-.004.01a.37.37 0 00.023.333c.071.122.207.2.334.203a22.777 22.777 0 01-.607-.015zm-6.663 6.691c-1.452 1.31-2.982 1.768-4.276 1.617m4.276-1.617c.13-.117.26-.24.387-.371m-.386.371c.17.077.343.154.518.23l.143-.332-.143.332a.396.396 0 01-.212-.294.358.358 0 01.08-.307m-7.966-.516a1 1 0 00-1.133-.464c-.589.162-1.173.301-1.767.408h-.007l-.001.001a1.092 1.092 0 000 .001h.002a.433.433 0 01.29.094c.098.076.13.164.139.217a.351.351 0 01-.057.248.424.424 0 01-.234.182l-.007.002-.006.002a.173.173 0 010 0l.006-.001.007-.001a20.843 20.843 0 002.768-.689zm0 0a.906.906 0 01.023.044c.743 1.449 1.948 2.304 3.28 2.46m4.663-1.988h0zm.135-36.803c-.061-.61-.021-1.239.068-1.98.031-.259.07-.547.113-.855.048-.347.099-.718.145-1.099m2.816 3.59c-.248-1.267-1.15-2.553-2.816-3.59M9.285 9.83c.245-1.26 1.148-2.546 2.816-3.584.046.378.097.746.144 1.09.042.31.082.6.113.86.09.741.13 1.37.068 1.98-.083.797-.386 1.385-.816 1.958-.223.297-.472.58-.754.9v.002a29.67 29.67 0 00-.434.5.97.97 0 00-.03-.037c-.973-1.107-1.346-2.42-1.107-3.668zm-1.217 7.43a20.53 20.53 0 00-1.32 3.54c-1.484-.794-2.339-2.075-2.45-3.466v-.002c-.106-1.299.406-2.81 1.745-4.242.121.289.238.559.349.815.427.989.764 1.77.96 2.614a1 1 0 00.716.74zM17.5 29.608L12.865 32l.886-5.065L10 23.348l5.183-.738L17.5 18l2.317 4.61" stroke="#E82932" stroke-width="2" stroke-miterlimit="10" stroke-linecap="round" stroke-linejoin="round"/><path d="M36.501 29.608L41.136 32l-.884-5.065 3.749-3.587-5.183-.738L36.501 18l-2.317 4.61" stroke="#E82932" stroke-width="2" stroke-miterlimit="10" stroke-linecap="round" stroke-linejoin="round"/><path d="M27 33.924L21.13 37l1.122-6.513-4.752-4.61 6.565-.95L27 19l2.935 5.927 6.565.95-4.748 4.61L32.87 37 27 33.924z" stroke="#E82932" stroke-width="2" stroke-miterlimit="10" stroke-linecap="round" stroke-linejoin="round"/></svg>