<svg width="40" height="40" fill="none" xmlns="http://www.w3.org/2000/svg"><g clip-path="url(#clip0_470_18768)" stroke="#fff" stroke-width="1.4" stroke-miterlimit="10"><path d="M12.94 36.009c-6.174-2.685-10.49-8.84-10.49-16.002 0-9.632 7.81-17.442 17.442-17.442" stroke-linecap="round" stroke-linejoin="round"/><path d="M26.605 3.905c6.302 2.63 10.729 8.85 10.729 16.104 0 9.632-7.81 17.442-17.442 17.442"/><path d="M20.005 2.562L17.563.622m.501 4.382l1.941-2.441m-.113 34.884l2.008-2.388m.38 4.396l-2.388-2.008m-8.221-14.004h3.359v-.345c0-.761-.543-1.416-1.291-1.557l-2.068-.389" stroke-linecap="round" stroke-linejoin="round"/><path d="M27.184 25.616v.257a1.758 1.758 0 103.517 0v-6.007l1.186-1.4v-1.323a.572.572 0 00-.573-.572h-2.193l-1.747-3.434a1.955 1.955 0 00-1.743-1.069H14.727c-.736 0-1.409.414-1.743 1.069l-1.747 3.434H9.044a.572.572 0 00-.573.572v1.323l1.186 1.4v6.007a1.758 1.758 0 003.517 0v-.257m14.128-9.125H13.053" stroke-linecap="round" stroke-linejoin="round"/><path d="M25.526 17.794l-1.328 1.142a1.314 1.314 0 01-.86.319h-6.317c-.315 0-.62-.114-.86-.319l-1.327-1.142m7.333 5.649H18.19m10.495 2.212H11.67m17.015-2.212h-3.357v-.345c0-.761.542-1.416 1.29-1.557l2.067-.389" stroke-linecap="round" stroke-linejoin="round"/></g><defs><clipPath id="clip0_470_18768"><path fill="#fff" d="M0 0h40v40H0z"/></clipPath></defs></svg>