<svg width="54" height="54" fill="none" xmlns="http://www.w3.org/2000/svg"><path d="M7.164 35.791h6.138v-.625c0-1.395-.99-2.588-2.357-2.848l-3.78-.712" stroke="#131415" stroke-width="1.6" stroke-miterlimit="10" stroke-linecap="round" stroke-linejoin="round"/><path d="M32.69 15H12.754c-1.347 0-2.578.76-3.184 1.953l-3.194 6.282H2.365c-.577 0-1.049.472-1.049 1.049v2.415l2.165 2.559v10.986a3.213 3.213 0 106.427 0v-.471m12.508-16.692H9.697" stroke="#131415" stroke-width="1.6" stroke-miterlimit="10" stroke-linecap="round" stroke-linejoin="round"/><path d="M22.416 28.142h-5.465a2.442 2.442 0 01-1.568-.578l-2.424-2.087m9.456 10.314h-3.329m4.856 4.049H7.164M53 21.301v11.756a17.243 17.243 0 01-9.034 15.162l-4.117 2.232-4.118-2.232a17.204 17.204 0 01-7.735-8.6 17.235 17.235 0 01-1.299-6.562V21.34a30.902 30.902 0 0012.998-4.56h.644A30.899 30.899 0 0053 21.301z" stroke="#131415" stroke-width="1.6" stroke-miterlimit="10" stroke-linecap="round" stroke-linejoin="round"/><path d="M33.885 33.5l3.752 3.752 9.38-9.38" stroke="#131415" stroke-width="1.6" stroke-miterlimit="10" stroke-linecap="round" stroke-linejoin="round"/></svg>