<svg width="54" height="54" fill="none" xmlns="http://www.w3.org/2000/svg"><path d="M13.758 44.39h5.3v-.544a2.501 2.501 0 00-2.038-2.457l-3.262-.613" stroke="#131415" stroke-width="1.6" stroke-miterlimit="10" stroke-linecap="round" stroke-linejoin="round"/><path d="M38.234 47.82v.406a2.775 2.775 0 105.55 0v-9.48l1.872-2.209V34.45c0-.5-.405-.903-.904-.903h-3.46l-2.758-5.42a3.084 3.084 0 00-2.75-1.685H18.577a3.09 3.09 0 00-2.75 1.686l-2.758 5.419h-3.46c-.5 0-.904.405-.904.903v2.087l1.872 2.208v9.48a2.775 2.775 0 105.55 0v-.405m22.292-14.4H15.935" stroke="#131415" stroke-width="1.6" stroke-miterlimit="10" stroke-linecap="round" stroke-linejoin="round"/><path d="M35.618 35.477l-2.094 1.803a2.073 2.073 0 01-1.357.502H22.2a2.09 2.09 0 01-1.357-.502l-2.096-1.803m11.571 8.913h-6.277m16.561 3.49H13.758m26.844-3.49h-5.297v-.544a2.5 2.5 0 012.037-2.457l3.26-.613M26.999 2.93c-3.928 0-7.14 8.437-7.367 19.08-2.034-1.923-4.666-3.083-7.544-3.083-2.962 0-5.667 1.23-7.723 3.256C4.966 11.459 14.871 2.93 27 2.93zM49.63 22.116c-2.049-1.985-4.727-3.19-7.657-3.19-2.9 0-5.554 1.18-7.595 3.132-.004-.006-.01-.01-.013-.014C34.145 11.386 30.932 2.93 27 2.93c12.103 0 21.99 8.495 22.63 19.186z" stroke="#131415" stroke-width="1.6" stroke-miterlimit="10" stroke-linecap="round" stroke-linejoin="round"/><path d="M34.363 22.044c-1.982-1.944-4.554-3.117-7.365-3.117-2.804 0-5.37 1.168-7.35 3.1-.006-.008-.011-.011-.017-.017.226-10.643 3.439-19.08 7.367-19.08 3.931 0 7.144 8.457 7.365 19.114zM27 18.999v5.145" stroke="#131415" stroke-width="1.6" stroke-miterlimit="10" stroke-linecap="round" stroke-linejoin="round"/></svg>