<svg width="60" height="60" fill="none" xmlns="http://www.w3.org/2000/svg"><path d="M23.716 24.837l4.13 4.645 7.545-8.093M14.177 34.76L3 46.584l7.76 2.252L12.753 57l12.885-13.02m19.435-9.22L56.25 46.585l-7.76 2.252L46.497 57 33.398 43.769M30.764 4.287l3.63 3.59c.357.351.926.562 1.496.492l5.054-.774c.926-.141 1.78.492 1.993 1.407L43.721 14c.07.563.427.985.925 1.267l4.556 2.322c.855.423 1.21 1.478.783 2.252l-2.349 4.505a1.951 1.951 0 000 1.548l2.35 4.504c.426.845.07 1.83-.784 2.252l-4.556 2.323c-.498.281-.854.703-.925 1.267l-.783 4.996c-.143.915-.997 1.549-1.994 1.408l-5.054-.915c-.57-.07-1.068.07-1.495.493l-3.631 3.589c-.64.633-1.78.633-2.42 0l-3.631-3.59a1.851 1.851 0 00-1.495-.492l-5.055.774c-.925.14-1.78-.492-1.993-1.407l-.783-4.997c-.071-.563-.427-.986-.925-1.267L9.977 32.58c-.855-.422-1.21-1.478-.783-2.252l2.349-4.504a1.95 1.95 0 000-1.549l-2.35-4.504c-.427-.844-.07-1.83.784-2.252l4.556-2.323c.498-.281.854-.703.925-1.266l.783-4.997c.143-.915.997-1.548 1.994-1.408l5.054.775c.57.07 1.068-.07 1.495-.493l3.63-3.59c.57-.633 1.71-.633 2.35.071zm11.32 20.761c0 6.841-5.61 12.387-12.53 12.387-6.92 0-12.53-5.546-12.53-12.387 0-6.84 5.61-12.386 12.53-12.386 6.92 0 12.53 5.546 12.53 12.386z" stroke="#E31E24" stroke-width="2" stroke-miterlimit="10" stroke-linecap="round" stroke-linejoin="round"/></svg>