<svg width="60" height="60" fill="none" xmlns="http://www.w3.org/2000/svg"><g clip-path="url(#clip0_87_15136)"><path d="M27.665 47.506a21.901 21.901 0 01-13.003-.897 21.842 21.842 0 01-10.178-8.123 21.763 21.763 0 01.31-24.82 21.846 21.846 0 0110.378-7.867 21.901 21.901 0 0113.021-.573 21.858 21.858 0 0111.032 6.925 21.773 21.773 0 015.117 11.959M13.313 40.727V13.04h15.38a5.715 5.715 0 014.07 1.612 5.688 5.688 0 011.725 4.014v5.583a5.67 5.67 0 01-1.77 3.987 5.696 5.696 0 01-4.08 1.562L8.33 29.616m0 5h10.136m16.022 1.821s5.865-1.118 6.619-8.902c0 0-.035-3.067 3.073-3.207 3.109-.14 4.653 6.814 2.82 11.251l9.544-.274a2.47 2.47 0 012.2 1.174 3.509 3.509 0 01-.297 4.05s1.41 3.615-.959 5.437a3.838 3.838 0 01-1.55 4.922s.994 3.516-2.002 4.473l-8.416.133a19.86 19.86 0 01-4.378-.38l-6.654-1.406m-6.823-18.663h6.823v20.344h-6.823V35.045z" stroke="#E31E24" stroke-width="2" stroke-linecap="round" stroke-linejoin="round"/></g><defs><clipPath id="clip0_87_15136"><path fill="#fff" d="M0 0h60v60H0z"/></clipPath></defs></svg>