<svg width="60" height="60" fill="none" xmlns="http://www.w3.org/2000/svg"><path d="M14.05 19.956s11.961-.38 15.95-.38c3.988 0 15.95.38 15.95.38M30 27.874l.114.003.115-.003v.005l11.97.207-2.039 6.288a235.26 235.26 0 01-9.93.383l-.001.006c-.039 0-.076-.002-.115-.003l-.114.003c-.04 0-.077-.002-.115-.003l-.114.003-.001-.006a239.596 239.596 0 01-9.93-.383l-2.04-6.288 11.97-.207v-.005l.115.003.115-.003zm0 0v.004-.004zm26.986.514c-1.718-3.336-6.273-6.263-6.273-6.263.035.002 3.361.232 3.398-1.994.037-2.237-3.921-2.522-4.37-1.87-.037.053-.063.105-.198.158-.43.17-.91-.036-1.137-.468-1.19-2.255-3.533-6.099-5.985-6.808-2.957-.857-21.885-.857-24.843 0-2.45.71-4.793 4.553-5.984 6.808-.227.432-.706.637-1.137.468-.134-.053-.161-.105-.199-.159-.448-.65-4.406-.366-4.369 1.871.037 2.226 3.364 1.996 3.399 1.994 0 0-4.557 2.927-6.274 6.263-1.413 2.742-.503 14.228-.135 18.225 0 0 .172 2.887 1.654 2.887h7.23c.531 0 .96-.468.96-1.044v-.463h34.554v.463c0 .575.43 1.044.96 1.044h7.231c1.482 0 1.654-2.887 1.654-2.887.367-3.997 1.277-15.482-.136-18.225zm-51.931-.08s-.3 2.548 0 2.874c.228.248-.01 1.926 11.138 2.92l-1.712-5.959-9.426.165zm49.89 0l-9.427-.165-1.712 5.958c11.148-.992 10.91-2.67 11.138-2.92.3-.325 0-2.873 0-2.873zm-17.576 15.23s1.742-1.984 3.037-4.702c-3.934.221-10.408.367-10.408.367s-6.472-.146-10.406-.367c1.294 2.718 3.037 4.702 3.037 4.702h14.74z" stroke="#E31E24" stroke-width="2" stroke-miterlimit="10" stroke-linecap="round" stroke-linejoin="round"/></svg>