<svg width="32" height="32" fill="none" xmlns="http://www.w3.org/2000/svg"><g clip-path="url(#clip0_619_24710)"><path d="M2.645 18.659h1.67c.146 0 .27.047.374.142.103.095.155.21.155.347v2.044h-.503v-.851H2.619v.851h-.5v-2.044a.46.46 0 01.153-.347.531.531 0 01.373-.142zm-.026 1.217h1.723v-.728c0-.017-.01-.025-.027-.025h-1.67c-.018 0-.027.009-.027.025v.728h.001zm5.251.827V18.66h.503v2.044a.453.453 0 01-.156.347.529.529 0 01-.37.142H6.172a.526.526 0 01-.373-.142.456.456 0 01-.153-.347V18.66h.5v2.044c0 .017.009.024.027.024h1.672c.016.001.023-.007.023-.024zm1.161-2.044h2.725v.464h-1.109v2.07h-.503v-2.07H9.03v-.464zm3.907 0h1.673a.53.53 0 01.371.142c.104.095.156.21.156.347v1.555a.453.453 0 01-.156.347.528.528 0 01-.371.142h-1.674a.526.526 0 01-.372-.142.456.456 0 01-.153-.347v-1.555c0-.136.05-.252.153-.347a.527.527 0 01.373-.142zm0 2.07h1.673c.015 0 .022-.01.022-.025v-1.556c0-.016-.007-.024-.022-.024h-1.674c-.017 0-.026.008-.026.024v1.556c0 .016.01.024.027.024z" fill="#3C3C3B"/><path d="M17.484 18.659h2.506v.464h-2.002v.57H19.6v.465h-1.612v1.035h-.504v-2.534zm3.642 0h1.669c.146 0 .271.047.375.142.103.095.155.21.155.347v2.044h-.503v-.851h-1.723v.851h-.5v-2.044c0-.136.051-.252.153-.347a.532.532 0 01.374-.142zm-.027 1.217h1.723v-.728c0-.017-.01-.025-.027-.025h-1.67c-.017 0-.026.009-.026.025v.728zm5.741-.728v.193h-.503v-.193c0-.017-.007-.025-.023-.025h-1.672c-.018 0-.027.009-.027.025v.52c0 .017.009.025.027.025h1.672a.53.53 0 01.372.142c.103.095.155.21.155.347v.52a.453.453 0 01-.155.347.529.529 0 01-.372.142h-1.672a.526.526 0 01-.373-.142.456.456 0 01-.153-.346v-.194h.5v.194c0 .016.009.024.026.024h1.673c.015 0 .023-.009.023-.024v-.521c0-.017-.007-.025-.023-.025h-1.673a.526.526 0 01-.372-.142.457.457 0 01-.154-.347v-.52c0-.136.052-.252.154-.347a.526.526 0 01.372-.142h1.673a.53.53 0 01.371.142.454.454 0 01.155.347zm.649-.489h2.725v.464h-1.109v2.07h-.503v-2.07h-1.113v-.464z" fill="#C51315"/><path d="M24.06 16.462c-.353 0-.642-.27-.642-.6 0-.33.289-.6.643-.6.354 0 .642.27.642.6 0 .331-.288.6-.642.6zm0-1.121c-.308 0-.559.234-.559.522 0 .288.251.522.56.522.308 0 .559-.234.559-.522 0-.288-.25-.522-.56-.522z" fill="url(#paint0_linear_619_24710)"/><path d="M24.055 15.996c-.074 0-.135-.057-.135-.126 0-.07.061-.127.135-.127.075 0 .136.057.136.127s-.061.126-.136.126zm0-.214a.09.09 0 00-.093.088c0 .048.042.087.093.087.053 0 .094-.04.094-.087 0-.048-.042-.088-.094-.088z" fill="url(#paint1_linear_619_24710)"/><path d="M23.77 16.292l.04-.335-.272-.22.353-.069.14-.31.18.293.359.03-.244.248.082.328-.329-.139-.308.174zm-.07-.516l.189.153-.028.231.214-.12.227.096-.057-.227.168-.171-.248-.02-.124-.202-.097.214-.243.046z" fill="url(#paint2_radial_619_24710)"/><path d="M7.13 15.833c0-1.054.916-1.91 2.046-1.91.73 0 1.37.358 1.732.894-.347-.667-1.079-1.126-1.926-1.126-1.182 0-2.14.895-2.14 1.997 0 .95.711 1.745 1.663 1.947-.8-.258-1.374-.967-1.374-1.802z" fill="url(#paint3_linear_619_24710)"/><path d="M4.753 13.093s-.822.264-.936 1.244c-.113.98 0-1.985 0-1.985s.085.211.936.74z" fill="#89150D"/><path d="M4.194 14.721s-.494 2.25 2.505 2.131c0 0-3.204.844-2.998-2.13h.493z" fill="url(#paint4_linear_619_24710)"/><path d="M27.067 13.569s-1.305-.688-6.72-.583c0 0-1.701-1.509-4.905-1.88 0 0-3.068-.234-7.145 1.033 0 0-1.251.426-3.204.821 0 0-.964-.583-1.078-.953 0 0 1.014.345 3.346-.185 0 0 5.419-1.848 9.441-1.006 0 0 2.382.45 3.884 1.535.001 0 4.283-.08 6.381 1.218z" fill="url(#paint5_linear_619_24710)"/><path d="M27.945 14.716s-.226-.503-1.644-.556c0 0-.042-.154-.454-.53 0 .002 1.418-.29 2.098 1.086z" fill="url(#paint6_linear_619_24710)"/><path d="M14.705 13.119h4.877s-2.099-1.668-4.04-1.588c0 0 2.14.397 2.708 1.218l-3.545.37z" fill="url(#paint7_linear_619_24710)"/><path d="M14.081 13.119v-1.376s-2.778-.106-4.564.609c0 0 1.361-.98 4.791-.953l-.227 1.72z" fill="url(#paint8_linear_619_24710)"/><path d="M27.945 14.973s-1.584 1.412.429 1.99c0 0-1.304.005-1.673 0 0 0-.06-1.857 1.244-1.99z" fill="url(#paint9_linear_619_24710)"/><path d="M22.404 14.222c-3.855-1.595-6.893 1.417-11.858-.652 0 0 2.918 4.066 10.213 1.891 0 0-3.196 2.07-8.667.204 0 0 5.808 2.958 10.088 1.267.298.349.718.603 1.199.705a2.007 2.007 0 01-1.176-.983c-.644-1.259.338-2.729 1.847-2.729.73 0 1.37.357 1.732.893-.63-1.21-2.327-1.501-3.378-.596z" fill="url(#paint10_linear_619_24710)"/><path opacity=".5" d="M24.06 14.194c-.985 0-1.786.749-1.786 1.668 0 .92.802 1.669 1.787 1.669.985 0 1.786-.749 1.786-1.668 0-.92-.8-1.669-1.786-1.669zm0 2.81c-.674 0-1.222-.513-1.222-1.142 0-.63.548-1.142 1.223-1.142.674 0 1.223.512 1.223 1.142 0 .63-.549 1.142-1.223 1.142zm.884-2.246a1.625 1.625 0 00-.654-.3c.673.04 1.25.544 1.332 1.202l-.138.004c-.043-.445-.317-.738-.54-.906z" fill="url(#paint11_radial_619_24710)"/><path d="M24.06 14.194c-.985 0-1.786.749-1.786 1.668 0 .92.802 1.669 1.787 1.669.985 0 1.786-.749 1.786-1.668 0-.92-.8-1.669-1.786-1.669zm0 2.81c-.674 0-1.222-.513-1.222-1.142 0-.63.548-1.142 1.223-1.142.674 0 1.223.512 1.223 1.142 0 .63-.549 1.142-1.223 1.142zm.884-2.246a1.625 1.625 0 00-.654-.3c.673.04 1.25.544 1.332 1.202l-.138.004c-.043-.445-.317-.738-.54-.906z" fill="url(#paint12_radial_619_24710)"/><path opacity=".5" d="M9.187 14.194c-.985 0-1.787.749-1.787 1.668 0 .92.802 1.668 1.787 1.668.985 0 1.786-.748 1.786-1.668 0-.92-.8-1.668-1.786-1.668zm0 2.81c-.675 0-1.223-.513-1.223-1.142 0-.63.549-1.142 1.223-1.142s1.222.512 1.222 1.142c0 .63-.548 1.142-1.222 1.142zm.883-2.246a1.625 1.625 0 00-.654-.3c.673.04 1.25.544 1.332 1.202l-.138.004c-.043-.445-.317-.738-.54-.906z" fill="url(#paint13_radial_619_24710)"/><path d="M9.187 14.194c-.985 0-1.787.749-1.787 1.668 0 .92.802 1.668 1.787 1.668.985 0 1.786-.748 1.786-1.668 0-.92-.8-1.668-1.786-1.668zm0 2.81c-.675 0-1.223-.513-1.223-1.142 0-.63.549-1.142 1.223-1.142s1.222.512 1.222 1.142c0 .63-.548 1.142-1.222 1.142zm.883-2.246a1.625 1.625 0 00-.654-.3c.673.04 1.25.544 1.332 1.202l-.138.004c-.043-.445-.317-.738-.54-.906z" fill="url(#paint14_radial_619_24710)"/><path d="M9.193 16.453c-.354 0-.642-.27-.642-.6 0-.33.288-.6.642-.6.354 0 .643.27.643.6 0 .33-.288.6-.643.6zm0-1.122c-.308 0-.559.234-.559.522 0 .288.25.522.56.522.308 0 .559-.234.559-.522 0-.288-.251-.522-.56-.522z" fill="url(#paint15_linear_619_24710)"/><path d="M9.188 15.987c-.074 0-.135-.057-.135-.126 0-.07.06-.127.135-.127.074 0 .135.057.135.127s-.06.126-.135.126zm0-.214c-.052 0-.094.04-.094.088 0 .048.043.087.094.087.052 0 .094-.04.094-.087 0-.049-.042-.088-.094-.088z" fill="url(#paint16_linear_619_24710)"/><path d="M8.903 16.283l.04-.335-.273-.22.354-.069.14-.31.179.293.359.03-.243.248.082.328-.33-.139-.308.174zm-.07-.516l.188.153-.027.231.213-.12.227.096-.056-.227.168-.171-.249-.02-.123-.202-.097.214-.244.046z" fill="url(#paint17_radial_619_24710)"/></g><defs><linearGradient id="paint0_linear_619_24710" x1="24.061" y1="10.465" x2="24.061" y2="17.967" gradientUnits="userSpaceOnUse"><stop stop-color="#E30613"/><stop offset=".152" stop-color="#DE0813"/><stop offset=".365" stop-color="#D00C12"/><stop offset=".614" stop-color="#B8110F"/><stop offset=".889" stop-color="#99120A"/><stop offset="1" stop-color="#8A1207"/></linearGradient><linearGradient id="paint1_linear_619_24710" x1="24.055" y1="13.136" x2="24.055" y2="16.936" gradientUnits="userSpaceOnUse"><stop stop-color="#E30613"/><stop offset=".152" stop-color="#DE0813"/><stop offset=".365" stop-color="#D00C12"/><stop offset=".614" stop-color="#B8110F"/><stop offset=".889" stop-color="#99120A"/><stop offset="1" stop-color="#8A1207"/></linearGradient><linearGradient id="paint3_linear_619_24710" x1="9.043" y1="8.925" x2="8.812" y2="18.849" gradientUnits="userSpaceOnUse"><stop stop-color="#E30613"/><stop offset=".152" stop-color="#DE0813"/><stop offset=".365" stop-color="#D00C12"/><stop offset=".614" stop-color="#B8110F"/><stop offset=".889" stop-color="#99120A"/><stop offset="1" stop-color="#8A1207"/></linearGradient><linearGradient id="paint4_linear_619_24710" x1="5.384" y1="8.839" x2="5.153" y2="18.763" gradientUnits="userSpaceOnUse"><stop stop-color="#E30613"/><stop offset=".152" stop-color="#DE0813"/><stop offset=".365" stop-color="#D00C12"/><stop offset=".614" stop-color="#B8110F"/><stop offset=".889" stop-color="#99120A"/><stop offset="1" stop-color="#8A1207"/></linearGradient><linearGradient id="paint5_linear_619_24710" x1="15.641" y1="9.078" x2="15.409" y2="19.003" gradientUnits="userSpaceOnUse"><stop stop-color="#E30613"/><stop offset=".152" stop-color="#DE0813"/><stop offset=".365" stop-color="#D00C12"/><stop offset=".614" stop-color="#B8110F"/><stop offset=".889" stop-color="#99120A"/><stop offset="1" stop-color="#8A1207"/></linearGradient><linearGradient id="paint6_linear_619_24710" x1="27.026" y1="9.344" x2="26.794" y2="19.268" gradientUnits="userSpaceOnUse"><stop stop-color="#F39200"/><stop offset=".345" stop-color="#EF7817"/><stop offset="1" stop-color="#E6332A"/></linearGradient><linearGradient id="paint7_linear_619_24710" x1="17.25" y1="9.116" x2="17.019" y2="19.04" gradientUnits="userSpaceOnUse"><stop stop-color="#E30613"/><stop offset=".152" stop-color="#DE0813"/><stop offset=".365" stop-color="#D00C12"/><stop offset=".614" stop-color="#B8110F"/><stop offset=".889" stop-color="#99120A"/><stop offset="1" stop-color="#8A1207"/></linearGradient><linearGradient id="paint8_linear_619_24710" x1="11.989" y1="8.993" x2="11.758" y2="18.917" gradientUnits="userSpaceOnUse"><stop stop-color="#E30613"/><stop offset=".152" stop-color="#DE0813"/><stop offset=".365" stop-color="#D00C12"/><stop offset=".614" stop-color="#B8110F"/><stop offset=".889" stop-color="#99120A"/><stop offset="1" stop-color="#8A1207"/></linearGradient><linearGradient id="paint9_linear_619_24710" x1="27.74" y1="9.361" x2="27.509" y2="19.285" gradientUnits="userSpaceOnUse"><stop stop-color="#E30613"/><stop offset=".152" stop-color="#DE0813"/><stop offset=".365" stop-color="#D00C12"/><stop offset=".614" stop-color="#B8110F"/><stop offset=".889" stop-color="#99120A"/><stop offset="1" stop-color="#8A1207"/></linearGradient><linearGradient id="paint10_linear_619_24710" x1="18.299" y1="9.141" x2="18.067" y2="19.065" gradientUnits="userSpaceOnUse"><stop stop-color="#E30613"/><stop offset=".152" stop-color="#DE0813"/><stop offset=".365" stop-color="#D00C12"/><stop offset=".614" stop-color="#B8110F"/><stop offset=".889" stop-color="#99120A"/><stop offset="1" stop-color="#8A1207"/></linearGradient><linearGradient id="paint15_linear_619_24710" x1="9.194" y1="10.456" x2="9.194" y2="17.958" gradientUnits="userSpaceOnUse"><stop stop-color="#E30613"/><stop offset=".152" stop-color="#DE0813"/><stop offset=".365" stop-color="#D00C12"/><stop offset=".614" stop-color="#B8110F"/><stop offset=".889" stop-color="#99120A"/><stop offset="1" stop-color="#8A1207"/></linearGradient><linearGradient id="paint16_linear_619_24710" x1="9.188" y1="13.127" x2="9.188" y2="16.927" gradientUnits="userSpaceOnUse"><stop stop-color="#E30613"/><stop offset=".152" stop-color="#DE0813"/><stop offset=".365" stop-color="#D00C12"/><stop offset=".614" stop-color="#B8110F"/><stop offset=".889" stop-color="#99120A"/><stop offset="1" stop-color="#8A1207"/></linearGradient><radialGradient id="paint2_radial_619_24710" cx="0" cy="0" r="1" gradientUnits="userSpaceOnUse" gradientTransform="matrix(.70382 0 0 .65714 24.054 15.825)"><stop stop-color="#878787"/><stop offset=".047" stop-color="#828181"/><stop offset=".113" stop-color="#707070"/><stop offset=".19" stop-color="#545353"/><stop offset=".275" stop-color="#171716"/><stop offset=".286"/><stop offset=".513" stop-color="#373736"/><stop offset=".98" stop-color="#6D6D6C"/><stop offset="1" stop-color="#706F6F"/></radialGradient><radialGradient id="paint11_radial_619_24710" cx="0" cy="0" r="1" gradientUnits="userSpaceOnUse" gradientTransform="matrix(2.91746 0 0 2.72399 24.06 15.862)"><stop stop-color="#4A4A49"/><stop offset=".212" stop-color="#373736"/><stop offset=".507"/><stop offset=".631" stop-color="#2A2A29"/><stop offset=".846" stop-color="#434342"/><stop offset="1" stop-color="#4A4A49"/></radialGradient><radialGradient id="paint12_radial_619_24710" cx="0" cy="0" r="1" gradientUnits="userSpaceOnUse" gradientTransform="matrix(2.6671 0 0 2.49024 24.06 15.862)"><stop stop-color="#878787"/><stop offset=".081" stop-color="#828181"/><stop offset=".195" stop-color="#707070"/><stop offset=".327" stop-color="#545353"/><stop offset=".473" stop-color="#171716"/><stop offset=".493"/><stop offset=".654" stop-color="#373736"/><stop offset=".986" stop-color="#6D6D6C"/><stop offset="1" stop-color="#706F6F"/></radialGradient><radialGradient id="paint13_radial_619_24710" cx="0" cy="0" r="1" gradientUnits="userSpaceOnUse" gradientTransform="matrix(2.91749 0 0 2.72402 9.187 15.862)"><stop stop-color="#4A4A49"/><stop offset=".212" stop-color="#373736"/><stop offset=".507"/><stop offset=".631" stop-color="#2A2A29"/><stop offset=".846" stop-color="#434342"/><stop offset="1" stop-color="#4A4A49"/></radialGradient><radialGradient id="paint14_radial_619_24710" cx="0" cy="0" r="1" gradientUnits="userSpaceOnUse" gradientTransform="matrix(2.66713 0 0 2.49027 9.187 15.862)"><stop stop-color="#878787"/><stop offset=".081" stop-color="#828181"/><stop offset=".195" stop-color="#707070"/><stop offset=".327" stop-color="#545353"/><stop offset=".473" stop-color="#171716"/><stop offset=".493"/><stop offset=".654" stop-color="#373736"/><stop offset=".986" stop-color="#6D6D6C"/><stop offset="1" stop-color="#706F6F"/></radialGradient><radialGradient id="paint17_radial_619_24710" cx="0" cy="0" r="1" gradientUnits="userSpaceOnUse" gradientTransform="matrix(.70376 0 0 .6571 9.187 15.816)"><stop stop-color="#878787"/><stop offset=".047" stop-color="#828181"/><stop offset=".113" stop-color="#707070"/><stop offset=".19" stop-color="#545353"/><stop offset=".275" stop-color="#171716"/><stop offset=".286"/><stop offset=".513" stop-color="#373736"/><stop offset=".98" stop-color="#6D6D6C"/><stop offset="1" stop-color="#706F6F"/></radialGradient><clipPath id="clip0_619_24710"><path fill="#fff" transform="translate(2.12 10.596)" d="M0 0h28.095v10.596H0z"/></clipPath></defs></svg>