<svg width="134" height="52" fill="none" xmlns="http://www.w3.org/2000/svg"><g clip-path="url(#clip0_98_4161)"><path d="M2.508 39.327h7.96c.7 0 1.296.225 1.789.68.493.453.741 1.003.741 1.652v9.751h-2.402v-4.06H2.384v4.06H0v-9.75c0-.65.245-1.2.73-1.653.49-.45 1.083-.679 1.778-.679zm-.124 5.806H10.6V41.66c0-.08-.043-.116-.128-.116H2.508c-.085 0-.128.04-.128.116v3.474h.004zm25.042 3.945v-9.75h2.402v9.75c0 .65-.249 1.2-.742 1.653a2.52 2.52 0 01-1.77.68h-7.982c-.699 0-1.291-.226-1.777-.68-.486-.453-.731-1.003-.731-1.653v-9.75h2.384v9.75c0 .08.042.116.127.116h7.979c.074.004.11-.036.11-.116zm5.541-9.751h12.998v2.216h-5.29v9.867h-2.4v-9.867h-5.308v-2.216zm18.632 0h7.981c.685 0 1.278.225 1.77.68.494.453.742 1.003.742 1.652v7.42c0 .649-.248 1.199-.741 1.652a2.52 2.52 0 01-1.77.68h-7.983c-.698 0-1.29-.226-1.777-.68-.486-.453-.73-1.003-.73-1.653V41.66c0-.65.244-1.2.73-1.653.486-.454 1.082-.679 1.778-.679zm0 9.87h7.981c.071 0 .107-.04.107-.115v-7.42c0-.08-.036-.116-.107-.116H51.6c-.086 0-.128.04-.128.116v7.42c.003.076.046.116.128.116z" fill="#3C3C3B"/><path d="M73.284 39.327h11.952v2.216h-9.55v2.72h7.691v2.215h-7.69v4.936h-2.403V39.327zm17.369 0h7.96c.7 0 1.295.225 1.789.68.493.453.741 1.003.741 1.652v9.751h-2.402v-4.06h-8.216v4.06h-2.384v-9.75c0-.65.245-1.2.731-1.653.49-.45 1.082-.679 1.781-.679zm-.128 5.806h8.216V41.66c0-.08-.042-.116-.127-.116h-7.961c-.085 0-.128.04-.128.116v3.474zm27.387-3.474v.924h-2.402v-.924c0-.08-.035-.116-.11-.116h-7.978c-.085 0-.128.04-.128.116v2.484c0 .08.043.116.128.116h7.978c.685 0 1.278.225 1.771.68.493.453.741 1.003.741 1.652v2.484c0 .65-.248 1.2-.741 1.653a2.52 2.52 0 01-1.771.679h-7.978c-.699 0-1.291-.225-1.777-.68-.486-.453-.731-1.003-.731-1.652v-.924h2.384v.924c0 .08.042.116.128.116h7.978c.071 0 .11-.04.11-.116v-2.484c0-.08-.036-.116-.11-.116h-7.978c-.699 0-1.292-.225-1.778-.679-.486-.454-.73-1.004-.73-1.653V41.66c0-.65.244-1.2.73-1.653.486-.454 1.079-.679 1.778-.679h7.978a2.52 2.52 0 011.77.68c.493.453.738 1.006.738 1.652zm3.09-2.332H134v2.216h-5.289v9.867h-2.402v-9.867h-5.307v-2.216z" fill="#C51315"/><path d="M104.651 28.85c-1.688 0-3.065-1.285-3.065-2.861 0-1.577 1.377-2.862 3.065-2.862 1.689 0 3.066 1.285 3.066 2.862 0 1.58-1.377 2.861-3.066 2.861zm0-5.349c-1.472 0-2.667 1.116-2.667 2.491s1.195 2.49 2.667 2.49c1.473 0 2.668-1.115 2.668-2.49 0-1.375-1.195-2.49-2.668-2.49z" fill="url(#paint0_linear_98_4161)"/><path d="M104.627 26.628c-.355 0-.646-.272-.646-.603 0-.331.291-.603.646-.603.354 0 .645.272.645.603 0 .331-.291.603-.645.603zm0-1.02c-.249 0-.447.189-.447.417 0 .232.202.417.447.417.248 0 .447-.188.447-.417 0-.228-.203-.417-.447-.417z" fill="url(#paint1_linear_98_4161)"/><path d="M103.268 28.039l.192-1.597-1.302-1.053 1.685-.325.67-1.48.852 1.398 1.713.139-1.16 1.186.39 1.566-1.568-.662-1.472.828zm-.334-2.461l.898.729-.131 1.103 1.018-.573 1.082.457-.27-1.08.802-.818-1.185-.096-.589-.964-.465 1.023-1.16.219z" fill="url(#paint2_radial_98_4161)"/><path d="M23.903 25.85c0-5.029 4.367-9.106 9.756-9.106 3.48 0 6.53 1.703 8.258 4.26-1.653-3.18-5.144-5.37-9.184-5.37-5.637 0-10.206 4.267-10.206 9.527 0 4.53 3.391 8.32 7.932 9.284-3.817-1.232-6.556-4.614-6.556-8.596z" fill="url(#paint3_linear_98_4161)"/><path d="M12.562 12.78s-3.92 1.261-4.463 5.935c-.54 4.67 0-9.47 0-9.47s.404 1.01 4.463 3.534z" fill="#89150D"/><path d="M9.894 20.547S7.542 31.275 21.846 30.712c0 0-15.283 4.024-14.304-10.165h2.352z" fill="url(#paint4_linear_98_4161)"/><path d="M118.991 15.052s-6.223-3.283-32.052-2.78c0 0-8.113-7.197-23.396-8.966 0 0-14.63-1.12-34.077 4.926 0 0-5.967 2.03-15.283 3.915 0 0-4.598-2.78-5.14-4.545 0 0 4.835 1.643 15.956-.884 0 0 25.847-8.814 45.032-4.8 0 0 11.36 2.147 18.525 7.324.004.003 20.427-.378 30.435 5.81z" fill="url(#paint5_linear_98_4161)"/><path d="M123.18 20.523s-1.082-2.398-7.843-2.653c0 0-.199-.735-2.164-2.524 0 .004 6.761-1.387 10.007 5.177z" fill="url(#paint6_linear_98_4161)"/><path d="M60.027 12.905h23.261S73.281 4.95 64.018 5.33c0 0 10.21 1.895 12.917 5.81l-16.908 1.765z" fill="url(#paint7_linear_98_4161)"/><path d="M57.055 12.905V6.34S43.8 5.837 35.283 9.245c0 0 6.492-4.67 22.854-4.544l-1.082 8.204z" fill="url(#paint8_linear_98_4161)"/><path d="M123.18 21.749s-7.556 6.734 2.043 9.49c0 0-6.218.023-7.978 0 0 0-.284-8.857 5.935-9.49z" fill="url(#paint9_linear_98_4161)"/><path d="M96.751 18.165c-18.39-7.608-32.878 6.757-56.558-3.11 0 0 13.917 19.397 48.711 9.023 0 0-15.244 9.873-41.339.97 0 0 27.703 14.107 48.118 6.045 1.42 1.663 3.42 2.875 5.715 3.362-2.472-.802-4.49-2.504-5.605-4.687-3.072-6.005 1.61-13.017 8.809-13.017 3.48 0 6.531 1.702 8.258 4.26-3.008-5.774-11.1-7.162-16.109-2.846z" fill="url(#paint10_linear_98_4161)"/><path opacity=".5" d="M104.651 18.033c-4.7 0-8.52 3.57-8.52 7.956 0 4.385 3.824 7.959 8.52 7.959 4.701 0 8.522-3.57 8.522-7.956 0-4.386-3.821-7.96-8.522-7.96zm0 13.401c-3.217 0-5.832-2.444-5.832-5.445 0-3.005 2.615-5.446 5.832-5.446 3.218 0 5.833 2.441 5.833 5.446 0 3.004-2.615 5.445-5.833 5.445zm4.211-10.712c-1.057-.795-2.213-1.265-3.118-1.43 3.211.188 5.96 2.596 6.354 5.733l-.657.02c-.205-2.123-1.514-3.521-2.579-4.323z" fill="url(#paint11_radial_98_4161)"/><path d="M104.651 18.033c-4.7 0-8.52 3.57-8.52 7.956 0 4.385 3.824 7.959 8.52 7.959 4.701 0 8.522-3.57 8.522-7.956 0-4.386-3.821-7.96-8.522-7.96zm0 13.401c-3.217 0-5.832-2.444-5.832-5.445 0-3.005 2.615-5.446 5.832-5.446 3.218 0 5.833 2.441 5.833 5.446 0 3.004-2.615 5.445-5.833 5.445zm4.211-10.712c-1.057-.795-2.213-1.265-3.118-1.43 3.211.188 5.96 2.596 6.354 5.733l-.657.02c-.205-2.123-1.514-3.521-2.579-4.323z" fill="url(#paint12_radial_98_4161)"/><path opacity=".5" d="M33.708 18.033c-4.696 0-8.52 3.57-8.52 7.956 0 4.385 3.824 7.956 8.52 7.956 4.7 0 8.522-3.57 8.522-7.956 0-4.386-3.821-7.956-8.522-7.956zm0 13.401c-3.217 0-5.832-2.444-5.832-5.445 0-3.005 2.618-5.446 5.832-5.446 3.218 0 5.833 2.441 5.833 5.446 0 3.004-2.615 5.445-5.833 5.445zm4.211-10.712c-1.057-.795-2.213-1.265-3.118-1.43 3.21.188 5.96 2.596 6.354 5.733l-.657.02c-.205-2.123-1.51-3.521-2.579-4.323z" fill="url(#paint13_radial_98_4161)"/><path d="M33.708 18.033c-4.696 0-8.52 3.57-8.52 7.956 0 4.385 3.824 7.956 8.52 7.956 4.7 0 8.522-3.57 8.522-7.956 0-4.386-3.821-7.956-8.522-7.956zm0 13.401c-3.217 0-5.832-2.444-5.832-5.445 0-3.005 2.618-5.446 5.832-5.446 3.218 0 5.833 2.441 5.833 5.446 0 3.004-2.615 5.445-5.833 5.445zm4.211-10.712c-1.057-.795-2.213-1.265-3.118-1.43 3.21.188 5.96 2.596 6.354 5.733l-.657.02c-.205-2.123-1.51-3.521-2.579-4.323z" fill="url(#paint14_radial_98_4161)"/><path d="M33.74 28.807c-1.688 0-3.065-1.285-3.065-2.861 0-1.577 1.377-2.862 3.065-2.862 1.689 0 3.065 1.285 3.065 2.862 0 1.576-1.373 2.861-3.065 2.861zm0-5.352c-1.468 0-2.667 1.116-2.667 2.49 0 1.372 1.195 2.491 2.667 2.491 1.473 0 2.668-1.116 2.668-2.49 0-1.375-1.195-2.491-2.668-2.491z" fill="url(#paint15_linear_98_4161)"/><path d="M33.715 26.585c-.354 0-.645-.272-.645-.603 0-.331.29-.603.645-.603.355 0 .646.272.646.603 0 .331-.287.603-.645.603zm0-1.02c-.248 0-.447.188-.447.417 0 .232.203.417.447.417.249 0 .447-.188.447-.417 0-.232-.198-.417-.447-.417z" fill="url(#paint16_linear_98_4161)"/><path d="M32.357 27.996l.191-1.597-1.302-1.053 1.686-.325.67-1.48.851 1.398 1.714.139-1.16 1.186.39 1.566-1.568-.662-1.472.828zm-.334-2.461l.898.729-.131 1.103 1.018-.573 1.082.457-.27-1.08.802-.818-1.185-.096-.589-.964-.465 1.023-1.16.219z" fill="url(#paint17_radial_98_4161)"/></g><defs><linearGradient id="paint0_linear_98_4161" x1="104.652" y1=".248" x2="104.652" y2="36.028" gradientUnits="userSpaceOnUse"><stop stop-color="#E30613"/><stop offset=".152" stop-color="#DE0813"/><stop offset=".365" stop-color="#D00C12"/><stop offset=".614" stop-color="#B8110F"/><stop offset=".889" stop-color="#99120A"/><stop offset="1" stop-color="#8A1207"/></linearGradient><linearGradient id="paint1_linear_98_4161" x1="104.626" y1="12.988" x2="104.626" y2="31.111" gradientUnits="userSpaceOnUse"><stop stop-color="#E30613"/><stop offset=".152" stop-color="#DE0813"/><stop offset=".365" stop-color="#D00C12"/><stop offset=".614" stop-color="#B8110F"/><stop offset=".889" stop-color="#99120A"/><stop offset="1" stop-color="#8A1207"/></linearGradient><linearGradient id="paint3_linear_98_4161" x1="33.025" y1="-7.101" x2="31.92" y2="40.233" gradientUnits="userSpaceOnUse"><stop stop-color="#E30613"/><stop offset=".152" stop-color="#DE0813"/><stop offset=".365" stop-color="#D00C12"/><stop offset=".614" stop-color="#B8110F"/><stop offset=".889" stop-color="#99120A"/><stop offset="1" stop-color="#8A1207"/></linearGradient><linearGradient id="paint4_linear_98_4161" x1="15.573" y1="-7.508" x2="14.468" y2="39.825" gradientUnits="userSpaceOnUse"><stop stop-color="#E30613"/><stop offset=".152" stop-color="#DE0813"/><stop offset=".365" stop-color="#D00C12"/><stop offset=".614" stop-color="#B8110F"/><stop offset=".889" stop-color="#99120A"/><stop offset="1" stop-color="#8A1207"/></linearGradient><linearGradient id="paint5_linear_98_4161" x1="64.491" y1="-6.366" x2="63.386" y2="40.967" gradientUnits="userSpaceOnUse"><stop stop-color="#E30613"/><stop offset=".152" stop-color="#DE0813"/><stop offset=".365" stop-color="#D00C12"/><stop offset=".614" stop-color="#B8110F"/><stop offset=".889" stop-color="#99120A"/><stop offset="1" stop-color="#8A1207"/></linearGradient><linearGradient id="paint6_linear_98_4161" x1="118.794" y1="-5.1" x2="117.689" y2="42.235" gradientUnits="userSpaceOnUse"><stop stop-color="#F39200"/><stop offset=".345" stop-color="#EF7817"/><stop offset="1" stop-color="#E6332A"/></linearGradient><linearGradient id="paint7_linear_98_4161" x1="72.169" y1="-6.187" x2="71.064" y2="41.147" gradientUnits="userSpaceOnUse"><stop stop-color="#E30613"/><stop offset=".152" stop-color="#DE0813"/><stop offset=".365" stop-color="#D00C12"/><stop offset=".614" stop-color="#B8110F"/><stop offset=".889" stop-color="#99120A"/><stop offset="1" stop-color="#8A1207"/></linearGradient><linearGradient id="paint8_linear_98_4161" x1="47.076" y1="-6.773" x2="45.971" y2="40.56" gradientUnits="userSpaceOnUse"><stop stop-color="#E30613"/><stop offset=".152" stop-color="#DE0813"/><stop offset=".365" stop-color="#D00C12"/><stop offset=".614" stop-color="#B8110F"/><stop offset=".889" stop-color="#99120A"/><stop offset="1" stop-color="#8A1207"/></linearGradient><linearGradient id="paint9_linear_98_4161" x1="122.201" y1="-5.019" x2="121.096" y2="42.315" gradientUnits="userSpaceOnUse"><stop stop-color="#E30613"/><stop offset=".152" stop-color="#DE0813"/><stop offset=".365" stop-color="#D00C12"/><stop offset=".614" stop-color="#B8110F"/><stop offset=".889" stop-color="#99120A"/><stop offset="1" stop-color="#8A1207"/></linearGradient><linearGradient id="paint10_linear_98_4161" x1="77.171" y1="-6.07" x2="76.066" y2="41.263" gradientUnits="userSpaceOnUse"><stop stop-color="#E30613"/><stop offset=".152" stop-color="#DE0813"/><stop offset=".365" stop-color="#D00C12"/><stop offset=".614" stop-color="#B8110F"/><stop offset=".889" stop-color="#99120A"/><stop offset="1" stop-color="#8A1207"/></linearGradient><linearGradient id="paint15_linear_98_4161" x1="33.742" y1=".205" x2="33.742" y2="35.983" gradientUnits="userSpaceOnUse"><stop stop-color="#E30613"/><stop offset=".152" stop-color="#DE0813"/><stop offset=".365" stop-color="#D00C12"/><stop offset=".614" stop-color="#B8110F"/><stop offset=".889" stop-color="#99120A"/><stop offset="1" stop-color="#8A1207"/></linearGradient><linearGradient id="paint16_linear_98_4161" x1="33.716" y1="12.944" x2="33.716" y2="31.066" gradientUnits="userSpaceOnUse"><stop stop-color="#E30613"/><stop offset=".152" stop-color="#DE0813"/><stop offset=".365" stop-color="#D00C12"/><stop offset=".614" stop-color="#B8110F"/><stop offset=".889" stop-color="#99120A"/><stop offset="1" stop-color="#8A1207"/></linearGradient><radialGradient id="paint2_radial_98_4161" cx="0" cy="0" r="1" gradientUnits="userSpaceOnUse" gradientTransform="matrix(3.3569 0 0 3.13429 104.619 25.813)"><stop stop-color="#878787"/><stop offset=".047" stop-color="#828181"/><stop offset=".113" stop-color="#707070"/><stop offset=".19" stop-color="#545353"/><stop offset=".275" stop-color="#171716"/><stop offset=".286"/><stop offset=".513" stop-color="#373736"/><stop offset=".98" stop-color="#6D6D6C"/><stop offset="1" stop-color="#706F6F"/></radialGradient><radialGradient id="paint11_radial_98_4161" cx="0" cy="0" r="1" gradientUnits="userSpaceOnUse" gradientTransform="matrix(13.915 0 0 12.9923 104.652 25.99)"><stop stop-color="#4A4A49"/><stop offset=".212" stop-color="#373736"/><stop offset=".507"/><stop offset=".631" stop-color="#2A2A29"/><stop offset=".846" stop-color="#434342"/><stop offset="1" stop-color="#4A4A49"/></radialGradient><radialGradient id="paint12_radial_98_4161" cx="0" cy="0" r="1" gradientUnits="userSpaceOnUse" gradientTransform="matrix(12.7209 0 0 11.8774 104.652 25.99)"><stop stop-color="#878787"/><stop offset=".081" stop-color="#828181"/><stop offset=".195" stop-color="#707070"/><stop offset=".327" stop-color="#545353"/><stop offset=".473" stop-color="#171716"/><stop offset=".493"/><stop offset=".654" stop-color="#373736"/><stop offset=".986" stop-color="#6D6D6C"/><stop offset="1" stop-color="#706F6F"/></radialGradient><radialGradient id="paint13_radial_98_4161" cx="0" cy="0" r="1" gradientUnits="userSpaceOnUse" gradientTransform="matrix(13.9152 0 0 12.9924 33.71 25.99)"><stop stop-color="#4A4A49"/><stop offset=".212" stop-color="#373736"/><stop offset=".507"/><stop offset=".631" stop-color="#2A2A29"/><stop offset=".846" stop-color="#434342"/><stop offset="1" stop-color="#4A4A49"/></radialGradient><radialGradient id="paint14_radial_98_4161" cx="0" cy="0" r="1" gradientUnits="userSpaceOnUse" gradientTransform="matrix(12.7211 0 0 11.8775 33.71 25.99)"><stop stop-color="#878787"/><stop offset=".081" stop-color="#828181"/><stop offset=".195" stop-color="#707070"/><stop offset=".327" stop-color="#545353"/><stop offset=".473" stop-color="#171716"/><stop offset=".493"/><stop offset=".654" stop-color="#373736"/><stop offset=".986" stop-color="#6D6D6C"/><stop offset="1" stop-color="#706F6F"/></radialGradient><radialGradient id="paint17_radial_98_4161" cx="0" cy="0" r="1" gradientUnits="userSpaceOnUse" gradientTransform="matrix(3.35665 0 0 3.13406 33.71 25.768)"><stop stop-color="#878787"/><stop offset=".047" stop-color="#828181"/><stop offset=".113" stop-color="#707070"/><stop offset=".19" stop-color="#545353"/><stop offset=".275" stop-color="#171716"/><stop offset=".286"/><stop offset=".513" stop-color="#373736"/><stop offset=".98" stop-color="#6D6D6C"/><stop offset="1" stop-color="#706F6F"/></radialGradient><clipPath id="clip0_98_4161"><path fill="#fff" transform="translate(0 .872)" d="M0 0h134v50.538H0z"/></clipPath></defs></svg>