<svg width="134" height="54" fill="none" xmlns="http://www.w3.org/2000/svg"><g opacity=".3" clip-path="url(#clip0_98_4201)" fill="#fff"><path d="M2.508 41.09h7.96c.7 0 1.296.24 1.789.725.493.485.741 1.072.741 1.766V54h-2.402v-4.34H2.384V54H0V43.58c0-.694.245-1.281.73-1.766a2.445 2.445 0 011.778-.726zm-.124 6.203H10.6v-3.712c0-.085-.043-.124-.128-.124H2.508c-.085 0-.128.042-.128.124v3.712h.004zm25.042 4.215V41.09h2.402v10.42c0 .693-.249 1.28-.742 1.766a2.433 2.433 0 01-1.77.725h-7.982a2.42 2.42 0 01-1.777-.725 2.401 2.401 0 01-.731-1.767V41.09h2.384v10.42c0 .084.042.123.127.123h7.979c.074.004.11-.038.11-.123zm5.541-10.418h12.998v2.367h-5.29V54h-2.4V43.457h-5.308v-2.368zm18.632 0h7.981c.685 0 1.278.24 1.77.725a2.38 2.38 0 01.742 1.766v7.927c0 .694-.248 1.282-.741 1.767a2.433 2.433 0 01-1.77.725h-7.983a2.42 2.42 0 01-1.777-.725 2.401 2.401 0 01-.73-1.767v-7.927a2.4 2.4 0 01.73-1.766 2.425 2.425 0 011.778-.726zm0 10.546h7.981c.071 0 .107-.043.107-.124v-7.928c0-.085-.036-.123-.107-.123H51.6c-.086 0-.128.042-.128.123v7.928c.003.081.046.124.128.124zM73.284 41.09h11.952v2.367h-9.55v2.906h7.691v2.367h-7.69v5.274h-2.403V41.089zm17.369 0h7.96c.7 0 1.295.24 1.789.725.493.485.741 1.072.741 1.766V54h-2.402v-4.34h-8.216V54h-2.384V43.58c0-.694.245-1.281.731-1.766a2.448 2.448 0 011.781-.726zm-.128 6.203h8.216v-3.712c0-.085-.042-.124-.127-.124h-7.961c-.085 0-.128.042-.128.124v3.712zm27.387-3.713v.988h-2.402v-.987c0-.085-.035-.124-.11-.124h-7.978c-.085 0-.128.042-.128.124v2.654c0 .085.043.124.128.124h7.978c.685 0 1.278.24 1.771.726.493.484.741 1.072.741 1.766v2.654c0 .694-.248 1.281-.741 1.766a2.433 2.433 0 01-1.771.726h-7.978a2.419 2.419 0 01-1.777-.726 2.401 2.401 0 01-.731-1.766v-.987h2.384v.987c0 .085.042.124.128.124h7.978c.071 0 .11-.043.11-.124v-2.654c0-.085-.036-.124-.11-.124h-7.978c-.699 0-1.292-.24-1.778-.726a2.4 2.4 0 01-.73-1.766v-2.654a2.4 2.4 0 01.73-1.766 2.421 2.421 0 011.778-.726h7.978c.685 0 1.277.241 1.77.726.493.485.738 1.076.738 1.766zm3.09-2.49H134v2.367h-5.289V54h-2.402V43.457h-5.307v-2.368zm-16.351-11.195a3.067 3.067 0 01-3.065-3.058 3.067 3.067 0 013.065-3.058 3.067 3.067 0 013.066 3.058 3.065 3.065 0 01-3.066 3.058zm0-5.716a2.666 2.666 0 00-2.667 2.662 2.666 2.666 0 002.667 2.661 2.666 2.666 0 002.668-2.661 2.666 2.666 0 00-2.668-2.662z"/><path d="M104.627 27.52a.647.647 0 01-.646-.644c0-.354.291-.644.646-.644.354 0 .645.29.645.644a.647.647 0 01-.645.644zm0-1.09a.446.446 0 10-.001.893.446.446 0 00.001-.893z"/><path d="M103.268 29.028l.192-1.706-1.302-1.126 1.685-.346.67-1.582.852 1.493 1.713.149-1.16 1.267.39 1.674-1.568-.708-1.472.885zm-.334-2.63l.898.779-.131 1.178 1.018-.612 1.082.488-.27-1.153.802-.875-1.185-.102-.589-1.03-.465 1.094-1.16.233zm-79.031.291c0-5.373 4.367-9.73 9.756-9.73 3.48 0 6.53 1.82 8.258 4.552a10.203 10.203 0 00-9.184-5.737c-5.637 0-10.206 4.558-10.206 10.179 0 4.841 3.391 8.89 7.932 9.92-3.817-1.317-6.556-4.93-6.556-9.184zM12.562 12.723s-3.92 1.348-4.463 6.342c-.54 4.99 0-10.118 0-10.118s.404 1.08 4.463 3.776z"/><path d="M9.894 21.023S7.542 32.486 21.846 31.884c0 0-15.283 4.3-14.304-10.861h2.352zm109.097-5.873s-6.223-3.506-32.052-2.969c0 0-8.113-7.69-23.396-9.58 0 0-14.63-1.196-34.077 5.263 0 0-5.967 2.17-15.283 4.183 0 0-4.598-2.97-5.14-4.856 0 0 4.835 1.756 15.956-.945 0 0 25.847-9.417 45.032-5.128 0 0 11.36 2.294 18.525 7.825.004.004 20.427-.403 30.435 6.208z"/><path d="M123.18 20.997s-1.082-2.562-7.843-2.834c0 0-.199-.786-2.164-2.697 0 .003 6.761-1.483 10.007 5.531zm-63.153-8.139h23.261s-10.007-8.501-19.27-8.094c0 0 10.21 2.024 12.917 6.207l-16.908 1.887zm-2.972-.001V5.843S43.8 5.305 35.283 8.947c0 0 6.492-4.99 22.854-4.856l-1.082 8.766zm66.125 9.45s-7.556 7.195 2.043 10.14c0 0-6.218.024-7.978 0 0 0-.284-9.464 5.935-10.14zm-26.429-3.83c-18.39-8.129-32.878 7.22-56.558-3.323 0 0 13.917 20.725 48.711 9.64 0 0-15.244 10.551-41.339 1.038 0 0 27.703 15.073 48.118 6.459a10.214 10.214 0 005.715 3.592 9.766 9.766 0 01-5.605-5.008c-3.072-6.416 1.61-13.909 8.809-13.909 3.48 0 6.531 1.82 8.258 4.552-3.008-6.17-11.1-7.652-16.109-3.04z"/><path opacity=".5" d="M104.651 18.336c-4.7 0-8.52 3.815-8.52 8.5 0 4.687 3.824 8.505 8.52 8.505 4.701 0 8.522-3.815 8.522-8.5 0-4.686-3.821-8.505-8.522-8.505zm0 14.32c-3.217 0-5.832-2.613-5.832-5.82 0-3.21 2.615-5.817 5.832-5.817 3.218 0 5.833 2.608 5.833 5.818 0 3.21-2.615 5.818-5.833 5.818zm4.211-11.446c-1.057-.85-2.213-1.352-3.118-1.53 3.211.203 5.96 2.776 6.354 6.127l-.657.021c-.205-2.268-1.514-3.762-2.579-4.618z"/><path d="M104.651 18.336c-4.7 0-8.52 3.815-8.52 8.5 0 4.687 3.824 8.505 8.52 8.505 4.701 0 8.522-3.815 8.522-8.5 0-4.686-3.821-8.505-8.522-8.505zm0 14.32c-3.217 0-5.832-2.613-5.832-5.82 0-3.21 2.615-5.817 5.832-5.817 3.218 0 5.833 2.608 5.833 5.818 0 3.21-2.615 5.818-5.833 5.818zm4.211-11.446c-1.057-.85-2.213-1.352-3.118-1.53 3.211.203 5.96 2.776 6.354 6.127l-.657.021c-.205-2.268-1.514-3.762-2.579-4.618z"/><path opacity=".5" d="M33.708 18.336c-4.696 0-8.52 3.815-8.52 8.5 0 4.687 3.824 8.502 8.52 8.502 4.7 0 8.522-3.815 8.522-8.501s-3.821-8.501-8.522-8.501zm0 14.32c-3.217 0-5.832-2.613-5.832-5.82 0-3.21 2.618-5.817 5.832-5.817 3.218 0 5.833 2.608 5.833 5.818 0 3.21-2.615 5.818-5.833 5.818zM37.92 21.21c-1.057-.85-2.213-1.352-3.118-1.53 3.21.203 5.96 2.776 6.354 6.127l-.657.021c-.205-2.268-1.51-3.762-2.579-4.618z"/><path d="M33.708 18.336c-4.696 0-8.52 3.815-8.52 8.5 0 4.687 3.824 8.502 8.52 8.502 4.7 0 8.522-3.815 8.522-8.501s-3.821-8.501-8.522-8.501zm0 14.32c-3.217 0-5.832-2.613-5.832-5.82 0-3.21 2.618-5.817 5.832-5.817 3.218 0 5.833 2.608 5.833 5.818 0 3.21-2.615 5.818-5.833 5.818zM37.92 21.21c-1.057-.85-2.213-1.352-3.118-1.53 3.21.203 5.96 2.776 6.354 6.127l-.657.021c-.205-2.268-1.51-3.762-2.579-4.618z"/><path d="M33.74 29.849a3.067 3.067 0 01-3.065-3.058 3.067 3.067 0 013.065-3.058 3.067 3.067 0 013.065 3.058 3.065 3.065 0 01-3.065 3.058zm0-5.72a2.668 2.668 0 00-2.667 2.662 2.668 2.668 0 005.335 0 2.666 2.666 0 00-2.668-2.661z"/><path d="M33.715 27.474a.647.647 0 01-.645-.644c0-.354.29-.644.645-.644a.645.645 0 110 1.288zm0-1.09a.447.447 0 100 .894.447.447 0 000-.894z"/><path d="M32.357 28.982l.191-1.706-1.302-1.125 1.686-.347.67-1.582.851 1.493 1.714.149-1.16 1.267.39 1.674-1.568-.708-1.472.885zm-.334-2.63l.898.779-.131 1.178 1.018-.612 1.082.489-.27-1.154.802-.874-1.185-.103-.589-1.03-.465 1.094-1.16.233z"/></g><defs><clipPath id="clip0_98_4201"><path fill="#fff" d="M0 0h134v54H0z"/></clipPath></defs></svg>