<?xml version="1.0" encoding="utf-8"?><svg viewBox="0 0 52 52" xmlns="http://www.w3.org/2000/svg" xmlns:xlink="http://www.w3.org/1999/xlink"><style>:root>svg{display:none}:root>svg:target{display:block}</style><svg fill="none" viewBox="0 0 24 24" id="advanced" xmlns="http://www.w3.org/2000/svg"><path d="M1.505 6.83h11m2.505 0h7.37m-6.37 3.24V3.589m-4.63 13.65h11m-13.506 0h-7.37m6.37-3.242v6.483" stroke="#E82932" stroke-width="2" stroke-miterlimit="10"/></svg><svg fill="none" viewBox="0 0 18 19" id="arrow-bold" xmlns="http://www.w3.org/2000/svg"><g clip-path="url(#aba)" stroke="#fff" stroke-width="1.5"><path d="M3.457 15.042L14.543 3.957m0 0H4.279m10.264 0V14.22m-29.086 18.822l11.086-11.085m0 0h-10.264m10.264 0V32.22"/></g><defs><clipPath id="aba"><path fill="#fff" transform="translate(0 .5)" d="M0 0h18v18H0z"/></clipPath></defs></svg><svg fill="none" viewBox="0 0 18 19" id="arrow-bold-red" xmlns="http://www.w3.org/2000/svg"><g clip-path="url(#aca)" stroke-width="1.5"><path d="M3.457 15.042L14.543 3.957m0 0H4.279m10.264 0V14.22" stroke="#E82932"/><path d="M-14.543 33.042l11.086-11.085m0 0h-10.264m10.264 0V32.22" stroke="#fff"/></g><defs><clipPath id="aca"><path fill="#fff" transform="translate(0 .5)" d="M0 0h18v18H0z"/></clipPath></defs></svg><svg fill="none" viewBox="0 0 40 40" id="arrow-to-angle" xmlns="http://www.w3.org/2000/svg"><g clip-path="url(#ada)"><path d="M8 32L32 8m0 0H9.778M32 8v22.222m-58.889 36.889l24-24m0 0H-25.11m22.222 0v22.222"/></g><defs><clipPath id="ada"><path fill="#fff" d="M0 0h40v40H0z"/></clipPath></defs></svg><svg fill="none" viewBox="0 0 16 16" id="arrowDown-ico" xmlns="http://www.w3.org/2000/svg"><path d="M3.5 7L8 11.5 12.5 7"/></svg><svg viewBox="0 0 16 16" id="calendar" xmlns="http://www.w3.org/2000/svg"><path d="M12.548 2.304h-1.463v-.813a.488.488 0 00-.976 0v.813H5.882v-.813a.488.488 0 00-.976 0v.813H3.443a2.442 2.442 0 00-2.44 2.44v7.804a2.442 2.442 0 002.44 2.44h9.105a2.443 2.443 0 002.439-2.44V4.743a2.44 2.44 0 00-2.439-2.439zM1.979 4.744A1.465 1.465 0 013.442 3.28h1.464v.813a.488.488 0 00.976 0V3.28h4.227v.813a.488.488 0 00.976 0V3.28h1.463a1.465 1.465 0 011.464 1.463v.813H1.979v-.813zm10.569 9.268H3.443a1.465 1.465 0 01-1.464-1.464V6.532h12.033v6.016a1.465 1.465 0 01-1.464 1.464z"/><path d="M12.71 8.646a.813.813 0 11-1.625 0 .813.813 0 011.626 0zm-3.577 0a.813.813 0 11-1.626 0 .813.813 0 011.626 0zm-3.577 2.601a.813.813 0 11-1.625 0 .813.813 0 011.625 0zm0-2.601a.813.813 0 11-1.626 0 .813.813 0 011.626 0zm7.154 2.601a.813.813 0 11-1.625 0 .813.813 0 011.626 0zm-3.577 0a.813.813 0 11-1.625 0 .813.813 0 011.625 0z"/></svg><svg viewBox="0 0 32 32" id="configs" xmlns="http://www.w3.org/2000/svg"><path fill-rule="evenodd" clip-rule="evenodd" d="M8 5a3 3 0 00-3 3v4a3 3 0 003 3h4a3 3 0 003-3V8a3 3 0 00-3-3H8zM7 8a1 1 0 011-1h4a1 1 0 011 1v4a1 1 0 01-1 1H8a1 1 0 01-1-1V8zm1 9a3 3 0 00-3 3v4a3 3 0 003 3h4a3 3 0 003-3v-4a3 3 0 00-3-3H8zm-1 3a1 1 0 011-1h4a1 1 0 011 1v4a1 1 0 01-1 1H8a1 1 0 01-1-1v-4zm10 0a3 3 0 013-3h4a3 3 0 013 3v4a3 3 0 01-3 3h-4a3 3 0 01-3-3v-4zm3-1a1 1 0 00-1 1v4a1 1 0 001 1h4a1 1 0 001-1v-4a1 1 0 00-1-1h-4zm0-14a3 3 0 00-3 3v4a3 3 0 003 3h4a3 3 0 003-3V8a3 3 0 00-3-3h-4zm-1 3a1 1 0 011-1h4a1 1 0 011 1v4a1 1 0 01-1 1h-4a1 1 0 01-1-1V8z"/></svg><svg fill="none" viewBox="0 0 24 24" id="modal-close" xmlns="http://www.w3.org/2000/svg"><g clip-path="url(#aha)"><path d="M3.515 3.515l16.97 16.97m0-16.97l-16.97 16.97"/></g><defs><clipPath id="aha"><path fill="#fff" d="M0 0h24v24H0z"/></clipPath></defs></svg><svg fill="none" viewBox="0 0 16 16" id="point" xmlns="http://www.w3.org/2000/svg"><path d="M7.732 15.218a24.098 24.098 0 01-2.654-2.717c-.85-1.024-1.518-2.028-1.992-2.983-.599-1.204-.886-2.319-.886-3.32a5.59 5.59 0 011.623-3.96A5.46 5.46 0 017.734.6a5.46 5.46 0 013.91 1.638 5.59 5.59 0 011.624 3.96c0 .995-.287 2.107-.886 3.308-.474.953-1.142 1.958-1.992 2.984a24.466 24.466 0 01-2.657 2.728z" stroke="#E82932" stroke-width="1.2" stroke-linejoin="round"/><circle cx="7.733" cy="6.134" r="2.333" stroke="#E82932" stroke-width="1.2"/></svg><svg fill="none" viewBox="0 0 30 30" id="round_clock" xmlns="http://www.w3.org/2000/svg"><circle cx="15" cy="15" r="15" fill="#F4F4F4"/><g clip-path="url(#aja)"><path d="M14.987 7.747a7.23 7.23 0 00-7.24 7.24 7.23 7.23 0 007.24 7.24 7.23 7.23 0 007.24-7.24 7.23 7.23 0 00-7.24-7.24zm0 12.678a5.442 5.442 0 01-5.438-5.438 5.442 5.442 0 015.438-5.438 5.442 5.442 0 015.438 5.438 5.451 5.451 0 01-5.438 5.438zm2.494-7.079l-1.335 1.336a.939.939 0 01.064.29c0 .659-.547 1.206-1.206 1.206-.66 0-1.207-.547-1.207-1.207 0-.08.032-.16.048-.225l-2.317-2.285a.593.593 0 010-.853.593.593 0 01.853 0l2.236 2.237c.113-.032.226-.064.354-.064a.94.94 0 01.29.064l1.335-1.336a.593.593 0 01.853 0c.241.242.258.612.032.837z" fill="#B7B9BE"/></g><defs><clipPath id="aja"><path fill="#fff" transform="translate(7 7)" d="M0 0h16v16H0z"/></clipPath></defs></svg><svg fill="none" viewBox="0 0 30 30" id="round_phone" xmlns="http://www.w3.org/2000/svg"><circle cx="15" cy="15" r="15" fill="#F4F4F4"/><path fill-rule="evenodd" clip-rule="evenodd" d="M13.44 16.674a11.3 11.3 0 002.69 2.002l1.76-1.794 3.2.737c.334.077.622.279.622.622v3.375c-3.03.742-6.87-.474-9.804-3.407-2.934-2.934-4.15-6.773-3.407-9.806h3.373c.343 0 .547.288.622.622l.737 3.2-1.792 1.758a11.207 11.207 0 002 2.691z" fill="#B7B9BE"/></svg><svg fill="none" viewBox="0 0 30 30" id="round_point" xmlns="http://www.w3.org/2000/svg"><circle cx="15" cy="15" r="15" fill="#F4F4F4"/><path d="M14.987 7.46c-3.318 0-6.033 2.715-6.033 6.033 0 3.218 5.43 8.698 5.681 8.9.1.1.252.15.352.15.1 0 .252-.05.352-.15.252-.202 5.682-5.682 5.682-8.9 0-3.318-2.715-6.034-6.034-6.034zm0 9.032a2.97 2.97 0 01-2.999-2.999c0-1.68 1.32-3 3-3 1.679 0 2.998 1.32 2.998 3s-1.32 3-2.999 3z" fill="#B7B9BE"/></svg><svg fill="none" viewBox="0 0 20 20" id="searchIcon" xmlns="http://www.w3.org/2000/svg"><path d="M15.356 8.593c0 3.783-3.05 6.843-6.803 6.843S1.75 12.376 1.75 8.593 4.8 1.75 8.553 1.75s6.803 3.06 6.803 6.843zm-1.044 4.832l4.751 4.777"/></svg><svg fill="none" viewBox="0 0 48 48" id="service_credit" xmlns="http://www.w3.org/2000/svg"><path d="M6.315 26.197h5.59v-.574a2.638 2.638 0 00-2.148-2.59l-3.44-.648"/><path d="M39.957 17.914v-2.2a.952.952 0 00-.952-.952h-3.65l-2.908-5.715a3.25 3.25 0 00-2.9-1.777H11.401a3.257 3.257 0 00-2.9 1.777L5.594 14.76H1.945a.952.952 0 00-.952.952v2.2l1.973 2.33v9.997a2.926 2.926 0 105.853 0v-.427m23.508-15.185H8.616"/><path d="M29.372 16.795l-2.21 1.9a2.192 2.192 0 01-1.43.53H15.218a2.205 2.205 0 01-1.43-.53l-2.21-1.9m12.204 9.402h-6.617m6.617 3.682H6.315M37.17 40.622c5.52 0 9.996-4.475 9.996-9.995 0-5.521-4.475-9.996-9.996-9.996-5.52 0-9.995 4.475-9.995 9.995s4.475 9.996 9.995 9.996zm-3.075-5.867l6.237-8.15"/><path d="M34.685 29.548a1.524 1.524 0 100-3.05 1.524 1.524 0 000 3.05zm4.973 5.102a1.524 1.524 0 100-3.05 1.524 1.524 0 000 3.05z"/></svg><svg viewBox="0 0 48 48" id="service_detailing" xmlns="http://www.w3.org/2000/svg"><path d="M7.015 32.39h5.783v-.592a2.73 2.73 0 00-2.224-2.683l-3.56-.67"/><path d="M9.6 36.135v.442a3.02 3.02 0 01-.887 2.141 3.029 3.029 0 01-5.168-2.141V26.228l-2.042-2.41v-2.28c0-.545.443-.986.987-.986h3.777l3.01-5.918a3.371 3.371 0 013.002-1.84h4.55m22.965 16.943v6.84a3.02 3.02 0 01-.887 2.141 3.03 3.03 0 01-5.17-2.141v-.443M19.372 20.415H9.396"/><path d="M23.567 25.179h-7.34a2.28 2.28 0 01-1.48-.549l-2.288-1.968m12.636 9.73h-6.852m18.08 3.81H7.015m29.308-3.812H30.54v-.592a2.73 2.73 0 012.224-2.683l3.559-.67m-.15-21.519l3.26 4.882-3.88 2.59a1.693 1.693 0 00-.467 2.353c.52.78 1.572.989 2.352.47l-3.48 2.323-5.144-7.702a2.521 2.521 0 01.697-3.496l3.17-2.117a2.517 2.517 0 013.492.697z"/><path d="M44.949 10.163c.26.389.337.85.251 1.274a1.687 1.687 0 01-.723 1.078l-7.044 4.703a1.695 1.695 0 01-2.606-1.741c.085-.427.33-.82.72-1.081l7.045-4.703a1.701 1.701 0 012.357.47zM29.2 12.43l-2.837 1.893 3.116 4.668 2.836-1.893L29.2 12.43z"/><path d="M30.533 23.76l-.784.523a1.773 1.773 0 01-2.458-.49l-6.202-9.288a1.773 1.773 0 01.49-2.458l.784-.524a1.773 1.773 0 012.458.49l6.2 9.286a1.773 1.773 0 01-.488 2.46zm14.764-1.623l-4.664 3.114a1.53 1.53 0 01-2.124-.422l-3.84-5.752 5.939-3.966 4.69 7.026z"/><path d="M46.728 26.226L44.223 27.9l-3.12-2.961 4.194-2.802 1.431 4.089zM29.403 8.413l2.042 3.058a4.931 4.931 0 01.67 3.986l-.252.96m6.882 4.496l1.764-1.178m-.595 2.925l1.763-1.177M19.955 7.33l1.969.53-1.97.53-.53 1.971-.53-1.97-1.97-.53 1.97-.53.53-1.97.53 1.97zM3.926 15.79l1.575.426-1.575.425-.425 1.575-.423-1.575-1.575-.425 1.575-.425.423-1.575.425 1.575zm23.892 13.393L29 29.5l-1.182.319L27.501 31l-.32-1.181L26 29.5l1.182-.317L27.5 28l.317 1.183z"/></svg><svg viewBox="0 0 48 48" id="service_diagnostic" xmlns="http://www.w3.org/2000/svg"><path d="M30.624 46H17.277M7.783 23.776h6.383v-.654a3.012 3.012 0 00-2.454-2.96l-3.929-.738"/><path d="M37.265 27.906v.489a3.341 3.341 0 106.682 0V16.977l2.253-2.66v-2.513c0-.603-.488-1.088-1.088-1.088h-4.166L37.623 4.19a3.714 3.714 0 00-3.311-2.03H13.59a3.719 3.719 0 00-3.312 2.03l-3.321 6.526H2.79c-.602 0-1.088.489-1.088 1.089v2.513l2.253 2.66v11.416a3.341 3.341 0 106.683 0v-.488m26.85-17.341H10.41"/><path d="M34.112 13.041l-2.524 2.171a2.497 2.497 0 01-1.633.605H17.95c-.6 0-1.178-.216-1.634-.605l-2.523-2.171M27.73 23.776h-7.558m19.943 4.204H7.784m32.331-4.204h-6.38v-.654a3.012 3.012 0 012.454-2.96l3.926-.738M27.043 27.98h-6.058V46h6.058V27.98z"/></svg><svg fill="none" viewBox="0 0 48 48" id="service_insurance" xmlns="http://www.w3.org/2000/svg"><path d="M11.515 40.396h4.996v-.512a2.358 2.358 0 00-1.92-2.317l-3.076-.578"/><path d="M34.591 43.629v.382a2.616 2.616 0 105.233 0v-8.938l1.765-2.082v-1.967a.851.851 0 00-.852-.852h-3.262l-2.6-5.109a2.908 2.908 0 00-2.593-1.588H16.06a2.913 2.913 0 00-2.593 1.588l-2.6 5.11H7.605a.851.851 0 00-.852.851v1.967l1.764 2.082v8.938a2.616 2.616 0 105.233 0v-.382m21.016-13.574H13.569"/><path d="M32.124 31.993l-1.974 1.7a1.954 1.954 0 01-1.279.474h-9.399c-.47 0-.921-.169-1.278-.474l-1.976-1.7m10.911 8.404H21.21m15.613 3.29H11.514m25.31-3.291H31.83v-.512c0-1.134.807-2.108 1.92-2.317l3.074-.578M23.999 1.309c-3.703 0-6.732 7.954-6.945 17.988-1.917-1.813-4.4-2.907-7.112-2.907-2.792 0-5.342 1.16-7.28 3.07.566-10.11 9.903-18.151 21.337-18.151z"/><path d="M45.333 19.397c-1.931-1.872-4.456-3.007-7.218-3.007-2.734 0-5.236 1.112-7.16 2.951-.003-.005-.009-.008-.012-.012-.209-10.048-3.237-18.02-6.944-18.02 11.41 0 20.732 8.008 21.334 18.088z"/><path d="M30.942 19.329c-1.868-1.833-4.293-2.94-6.943-2.94-2.643 0-5.062 1.102-6.93 2.924-.005-.007-.01-.01-.015-.016.213-10.034 3.242-17.988 6.945-17.988 3.707 0 6.735 7.972 6.944 18.02zm-6.943-2.871v4.85"/></svg><svg viewBox="0 0 48 48" id="service_repair" xmlns="http://www.w3.org/2000/svg"><path d="M23.017 9.377h-7.833a3.664 3.664 0 00-3.27 2.006l-3.28 6.446H4.519c-.594 0-1.074.48-1.074 1.074v2.484l2.224 2.625v11.276a3.298 3.298 0 006.597 0v-.483m-.223-17.125h13.05"/><path d="M15.38 20.127l2.493 2.144c.449.387 1.02.598 1.612.598h5.607m0 7.861h-3.41m3.41 4.149H9.45m0-4.15h6.3v-.647a2.975 2.975 0 00-2.424-2.923l-3.876-.73"/><path d="M36.7 40.893a5.984 5.984 0 01-2.818 5.08v-2.209a3.151 3.151 0 00-3.15-3.151h-.002a3.151 3.151 0 00-3.15 3.151V46a5.98 5.98 0 01-2.86-5.107 5.981 5.981 0 013.01-5.193V12.736h.031v-.21a5.98 5.98 0 01-3.04-5.21 5.984 5.984 0 012.818-5.08v2.208a3.15 3.15 0 003.149 3.152h.002a3.15 3.15 0 003.15-3.152V2.21a5.98 5.98 0 012.86 5.107 5.981 5.981 0 01-3.01 5.193v22.964h-.03v.21a5.98 5.98 0 013.04 5.21z"/><path d="M44.713 23.106v1.604c0 .799-.647 1.446-1.446 1.446h-1.303a8.355 8.355 0 01-2.135 3.805l.672 1.239c.38.703.122 1.58-.579 1.96l-1.412.767c-.7.38-1.579.12-1.96-.58l-.613-1.133a8.251 8.251 0 01-2.098.267c-.048 0-.1 0-.149-.002v-5.216c.05.002.1.005.15.005a3.164 3.164 0 10-.15-6.323V15.73c.065-.004.13-.004.196-.004.645.004 1.272.08 1.877.222l.699-1.207c.4-.69 1.285-.926 1.975-.525l1.39.805c.69.398.925 1.283.527 1.972l-.652 1.126a8.36 8.36 0 012.153 3.54h1.413c.798 0 1.445.648 1.445 1.446z"/></svg><svg viewBox="0 0 48 48" id="service_spares" xmlns="http://www.w3.org/2000/svg"><path d="M42.305 25.398c0 11.024-8.936 19.96-19.96 19.96-11.024 0-19.962-8.936-19.962-19.96 0-11.024 8.938-19.96 19.962-19.96.466 0 .928.015 1.386.047v3.538c7.987.668 14.35 7.045 14.993 15.038h3.537c.029.442.044.888.044 1.337z"/><path d="M22.345 40.632c-8.414 0-15.235-6.821-15.235-15.234M23.731 2.2v6.823c7.987.668 14.35 7.045 14.993 15.038h6.821"/><path d="M22.345 36.195c5.963 0 10.797-4.834 10.797-10.797 0-5.963-4.834-10.796-10.797-10.796-5.963 0-10.797 4.833-10.797 10.796 0 5.963 4.834 10.797 10.797 10.797z"/><path d="M22.345 28.88a3.483 3.483 0 100-6.965 3.483 3.483 0 000 6.966zm0-9.06a1.386 1.386 0 100-2.773 1.386 1.386 0 000 2.773zm0 14.178a1.386 1.386 0 100-2.772 1.386 1.386 0 000 2.773zm7.088-7.089a1.386 1.386 0 100-2.773 1.386 1.386 0 000 2.773zm-14.178 0a1.387 1.387 0 100-2.773 1.387 1.387 0 000 2.773zm30.29-2.848h-6.82c-.644-7.993-7.007-14.37-14.994-15.038V2.2c11.747.691 21.15 10.107 21.814 21.861z"/><path d="M34.638 5.674l2.98-.724 3.317 2.002 2.002 3.527-.851 2.651"/></svg><svg viewBox="0 0 48 48" id="service_tireFitting" xmlns="http://www.w3.org/2000/svg"><path d="M20.096 46.055c10.463 0 18.945-8.482 18.945-18.945 0-10.463-8.482-18.945-18.945-18.945C9.633 8.165 1.15 16.647 1.15 27.11c0 10.463 8.482 18.945 18.945 18.945zM46.372 7.208a5.44 5.44 0 01-7.274 5.12 5.439 5.439 0 011.834-10.56 5.44 5.44 0 015.44 5.44z"/><path d="M20.096 40.75c7.534 0 13.64-6.107 13.64-13.64 0-7.534-6.106-13.641-13.64-13.641-7.534 0-13.64 6.107-13.64 13.64 0 7.534 6.106 13.642 13.64 13.642z"/><path d="M30.916 27.11c0 3.124-1.326 5.94-3.444 7.915a10.786 10.786 0 01-7.379 2.905c-1.903 0-3.688-.489-5.238-1.353a10.492 10.492 0 01-2.135-1.552 10.784 10.784 0 01-3.29-9.73 10.81 10.81 0 0112.037-8.917c3.707.469 6.83 2.819 8.386 6.063.428.891.737 1.852.906 2.857.102.586.157 1.194.157 1.813z"/><path d="M20.096 28.192a1.081 1.081 0 100-2.163 1.081 1.081 0 000 2.163zm5.18 8.418a10.75 10.75 0 01-5.183 1.32c-1.903 0-3.688-.489-5.238-1.353.055-.097.106-.193.163-.29a28.03 28.03 0 013.797-5.09c.326-.35.786-.525 1.242-.525.456 0 .915.175 1.241.526a28.03 28.03 0 013.797 5.09c.063.105.124.21.181.322zm4.579-14.173c-.075.037-.157.073-.235.109a28.115 28.115 0 01-6.05 1.915 1.55 1.55 0 01-.312.03c-.833 0-1.598-.631-1.71-1.483a28.309 28.309 0 01-.238-3.667c0-.997.054-1.984.16-2.966a10.832 10.832 0 018.385 6.062zm1.061 4.673c0 3.123-1.326 5.939-3.444 7.914a14.79 14.79 0 01-.278-.332A28.004 28.004 0 0123.8 29.33a1.686 1.686 0 01-.163-.719c0-.676.399-1.335 1.051-1.6a27.877 27.877 0 016.072-1.713c.102.586.157 1.193.157 1.812zM16.55 28.606c0 .247-.051.492-.163.721a28.129 28.129 0 01-3.39 5.362c-.09.112-.184.224-.277.332a10.784 10.784 0 01-3.29-9.729 27.69 27.69 0 016.069 1.713c.655.268 1.05.93 1.05 1.6zm2.262-9.256c0 1.214-.078 2.438-.239 3.66-.111.85-.875 1.484-1.71 1.484a1.57 1.57 0 01-.31-.03 28.068 28.068 0 01-6.05-1.915 5.86 5.86 0 01-.182-.085 10.81 10.81 0 018.331-6.077c.106.978.16 1.97.16 2.963zM43.206 5.256L40.974 7.24m1.788 5.088v3.525c0 .804-.65 1.453-1.453 1.453h-.758c-.803 0-1.453-.65-1.453-1.453v-3.525c.574.206 1.19.317 1.834.317.643 0 1.26-.111 1.83-.317z"/><path d="M40.929 17.305v25.699a2.179 2.179 0 01-4.356 0v-.616c0-1.888.021-2.782-1.625-3.707m7.814-23.523h2.33m.159 1.776V13.38"/></svg><svg viewBox="0 0 48 48" id="service_to" xmlns="http://www.w3.org/2000/svg"><g clip-path="url(#aua)"><path d="M20.53 8.842H11.8a3.19 3.19 0 00-2.845 1.745L6.1 16.198H2.521a.936.936 0 00-.936.936v2.16l1.936 2.286v9.81a2.872 2.872 0 005.742 0v-.418m-.194-14.905h7.128"/><path d="M11.972 18.194l2.168 1.868c.392.335.888.52 1.403.52h4.88m0 6.838h-2.968m2.968 3.614H6.81m0-3.613h5.483v-.562a2.585 2.585 0 00-2.11-2.543l-3.375-.634M32.08 18.44a4.14 4.14 0 10.001-8.28 4.14 4.14 0 000 8.28z"/><path d="M42.475 16.318a10.527 10.527 0 01-2.354 4.872l1.264 1.8a1.897 1.897 0 01-.461 2.64l-1.498 1.052a1.893 1.893 0 01-2.64-.462l-1.323-1.884c-1.063.36-2.203.554-3.387.554-.625 0-1.235-.053-1.83-.158l-1.022 2.152a1.894 1.894 0 01-2.523.9l-1.656-.786a1.896 1.896 0 01-.9-2.523l1.019-2.147a10.61 10.61 0 01-3.056-4.437l-2.366.182a1.895 1.895 0 01-2.035-1.743l-.14-1.826a1.895 1.895 0 011.742-2.035l2.368-.182a10.521 10.521 0 012.257-4.758l-.192.136L22.3 5.613a1.897 1.897 0 01.462-2.64l1.5-1.053a1.897 1.897 0 012.64.461L28.32 4.4a10.576 10.576 0 013.756-.685c.632 0 1.25.056 1.85.16L34.95 1.72a1.896 1.896 0 012.524-.9l1.653.786a1.895 1.895 0 01.9 2.524l-1.024 2.159a10.63 10.63 0 013.041 4.425l2.383-.183c1.043-.08 1.955.7 2.035 1.743l.141 1.826a1.895 1.895 0 01-1.743 2.035l-2.385.183zM27.17 40.801a2.779 2.779 0 100-5.558 2.779 2.779 0 000 5.558z"/><path d="M33.472 41.304a7.083 7.083 0 01-2.444 2.686l.47 1.4a1.27 1.27 0 01-.8 1.61l-1.165.392a1.272 1.272 0 01-1.612-.8l-.49-1.464a7.064 7.064 0 01-3.434-.741l-1.067 1.188a1.273 1.273 0 01-1.797.098l-.914-.822a1.273 1.273 0 01-.097-1.797l1.065-1.186a7.134 7.134 0 01-1.121-3.438l-1.556-.333a1.275 1.275 0 01-.978-1.51l.258-1.201a1.275 1.275 0 011.51-.977l1.558.335a7.05 7.05 0 012.361-2.63l-.15.05-.535-1.594a1.27 1.27 0 01.8-1.61l1.166-.391a1.27 1.27 0 011.61.8l.528 1.568a7.114 7.114 0 013.707.732l1.07-1.192a1.273 1.273 0 011.797-.097l.914.822a1.27 1.27 0 01.097 1.794l-1.072 1.194a7.15 7.15 0 011.114 3.428l1.568.338c.685.148 1.123.824.977 1.51l-.258 1.203a1.275 1.275 0 01-1.51.978l-1.57-.343z"/></g><defs><clipPath id="aua"><path fill="#fff" d="M0 0h48v48H0z"/></clipPath></defs></svg><svg fill="none" viewBox="0 0 48 48" id="service_tradein" xmlns="http://www.w3.org/2000/svg"><g clip-path="url(#ava)"><path d="M15.527 43.211C8.12 39.99 2.94 32.604 2.94 24.01c0-11.558 9.372-20.93 20.93-20.93m8.057 1.608C39.488 7.842 44.8 15.306 44.8 24.012c0 11.558-9.372 20.93-20.93 20.93m.136-41.867L21.076.746m.602 5.259l2.329-2.93m-.136 41.862l2.41-2.866m.456 5.276l-2.866-2.41"/><path d="M14.006 28.132h4.03v-.413c0-.914-.65-1.7-1.55-1.869l-2.48-.466"/><path d="M32.622 30.74v.308a2.11 2.11 0 104.22 0V23.84l1.422-1.68v-1.586a.687.687 0 00-.687-.688h-2.631l-2.097-4.12a2.345 2.345 0 00-2.091-1.283H17.673a2.35 2.35 0 00-2.091 1.282l-2.098 4.121h-2.63a.687.687 0 00-.688.688v1.587l1.423 1.68v7.208a2.11 2.11 0 104.22 0v-.308M32.762 19.79H15.664"/><path d="M30.63 21.354l-1.593 1.37a1.577 1.577 0 01-1.031.383h-7.58c-.38 0-.744-.137-1.032-.382l-1.593-1.372m8.799 6.779h-4.772m12.594 2.655H14.006m20.416-2.655h-4.028v-.413c0-.914.65-1.7 1.55-1.869l2.478-.466"/></g><defs><clipPath id="ava"><path fill="#fff" d="M0 0h48v48H0z"/></clipPath></defs></svg><svg viewBox="0 0 32 32" id="settings" xmlns="http://www.w3.org/2000/svg"><path fill-rule="evenodd" clip-rule="evenodd" d="M15 3a2 2 0 00-2 2v1.424a.048.048 0 01-.008.013.146.146 0 01-.07.046 9.945 9.945 0 00-1.476.612.145.145 0 01-.08.017.05.05 0 01-.015-.004l-1.008-1.007a2 2 0 00-2.828 0L6.1 7.515a2 2 0 000 2.828l1.007 1.008a.05.05 0 01.004.014.15.15 0 01-.017.081 9.94 9.94 0 00-.612 1.477.146.146 0 01-.046.07.048.048 0 01-.013.007H5a2 2 0 00-2 2v2a2 2 0 002 2h1.424c.001 0 .006.002.013.008a.146.146 0 01.046.07c.165.51.37 1.004.612 1.476.016.031.02.061.017.08a.05.05 0 01-.004.015l-1.007 1.008a2 2 0 000 2.828L7.515 25.9a2 2 0 002.828 0l1.008-1.008a.05.05 0 01.014-.004.15.15 0 01.081.017c.472.242.965.447 1.477.612a.15.15 0 01.07.046.048.048 0 01.007.013V27a2 2 0 002 2h2a2 2 0 002-2v-1.424l.003-.007a.145.145 0 01.074-.052 9.946 9.946 0 001.477-.612.145.145 0 01.09-.015l.005.002 1.008 1.008a2 2 0 002.828 0l1.415-1.415a2 2 0 000-2.828l-1.008-1.008a.05.05 0 01-.004-.014.15.15 0 01.017-.081c.242-.472.447-.965.612-1.477a.145.145 0 01.046-.07.048.048 0 01.013-.007H27a2 2 0 002-2v-2a2 2 0 00-2-2h-1.424a.048.048 0 01-.013-.008.145.145 0 01-.046-.07 9.946 9.946 0 00-.612-1.476.145.145 0 01-.017-.08.05.05 0 01.004-.015l1.008-1.008a2 2 0 000-2.828L24.485 6.1a2 2 0 00-2.828 0l-1.008 1.007a.05.05 0 01-.014.004.15.15 0 01-.081-.017 9.945 9.945 0 00-1.477-.612.146.146 0 01-.07-.046.048.048 0 01-.007-.013V5a2 2 0 00-2-2h-2zm0 2h2v1.425c0 .951.656 1.7 1.462 1.96.409.133.803.297 1.18.49.755.387 1.748.32 2.421-.352l1.008-1.008 1.414 1.414-1.008 1.008c-.673.673-.739 1.666-.352 2.421.193.377.357.771.49 1.18.26.806 1.009 1.462 1.96 1.462H27v2h-1.424c-.952 0-1.701.656-1.962 1.462a7.943 7.943 0 01-.489 1.18c-.387.755-.32 1.748.352 2.421l1.008 1.008-1.414 1.414-1.008-1.008c-.673-.673-1.666-.739-2.421-.352a7.943 7.943 0 01-1.18.49c-.806.26-1.462 1.009-1.462 1.96V27h-2v-1.424c0-.952-.656-1.701-1.462-1.962a7.948 7.948 0 01-1.18-.489c-.755-.387-1.748-.32-2.421.352l-1.008 1.008-1.414-1.414 1.008-1.008c.673-.673.739-1.666.352-2.421a7.938 7.938 0 01-.49-1.18C8.126 17.656 7.377 17 6.426 17H5v-2h1.425c.951 0 1.7-.656 1.96-1.462.133-.409.297-.803.49-1.18.387-.755.32-1.748-.352-2.421L7.515 8.929l1.414-1.414 1.008 1.008c.673.673 1.666.739 2.421.352a7.938 7.938 0 011.18-.49C14.344 8.126 15 7.377 15 6.426V5zm-2 11a3 3 0 116 0 3 3 0 01-6 0zm3-5a5 5 0 100 10 5 5 0 000-10z"/></svg><svg fill="none" viewBox="0 0 14 13" id="star-act" xmlns="http://www.w3.org/2000/svg"><path d="M7 0l1.938 4.333 4.72.504-3.522 3.182.979 4.644L7 10.297l-4.114 2.366.978-4.644L.343 4.837l4.72-.504L7 0z" fill="#FFAE10"/></svg><svg fill="none" viewBox="0 0 52 52" id="success-img" xmlns="http://www.w3.org/2000/svg"><path d="M15.84 21.852a1.253 1.253 0 00-1.838 1.704l9.682 10.446c.232.25.555.395.896.401h.023c.332 0 .65-.131.886-.366l24.27-24.27a1.253 1.253 0 00-1.772-1.771l-23.35 23.35-8.798-9.494z" fill="#A0DF35"/><path d="M30.017 2.405H7.531A5.017 5.017 0 002.52 7.416V44.49a5.017 5.017 0 005.011 5.01h37.074a5.017 5.017 0 005.01-5.01V32.195a1.253 1.253 0 00-2.505 0V44.49a2.508 2.508 0 01-2.506 2.505H7.531a2.508 2.508 0 01-2.506-2.505V7.417a2.508 2.508 0 012.506-2.505h22.486a1.253 1.253 0 000-2.506z" fill="#A0DF35"/></svg><svg viewBox="0 0 24 24" id="telegram" xmlns="http://www.w3.org/2000/svg"><path d="M9.786 14.727l-.34 4.786c.487 0 .698-.209.95-.46l2.283-2.181 4.73 3.463c.867.484 1.479.23 1.713-.798L22.226 4.99l.001-.001c.275-1.282-.464-1.784-1.309-1.47L2.67 10.508c-1.245.483-1.226 1.177-.211 1.492l4.665 1.45L17.96 6.67c.51-.338.974-.15.593.187l-8.767 7.871z"/></svg><svg fill="none" viewBox="0 0 20 20" id="tooltip-question" xmlns="http://www.w3.org/2000/svg"><path d="M10 17.5a7.5 7.5 0 100-15 7.5 7.5 0 000 15z"/><path d="M7.857 8.754v-.045c0-1.062.89-1.923 1.987-1.923h.311c1.098 0 1.988.86 1.988 1.923a1.91 1.91 0 01-.986 1.66l-.171.098c-.61.345-.986.976-.986 1.66v.016m0 1.607v.535-1.071.536z"/></svg><svg viewBox="0 0 24 24" id="vk" xmlns="http://www.w3.org/2000/svg"><path d="M19.74 12.644c-.377-.476-.27-.687 0-1.112.004-.005 3.113-4.3 3.433-5.757l.002-.001c.16-.531 0-.921-.77-.921H19.86c-.649 0-.947.334-1.108.709 0 0-1.296 3.104-3.13 5.116-.593.581-.866.767-1.19.767-.159 0-.406-.186-.406-.717V5.774c0-.637-.182-.921-.718-.921H9.302c-.406 0-.648.297-.648.573 0 .604.917.743 1.012 2.441v3.685c0 .808-.146.956-.471.956-.866 0-2.967-3.116-4.213-6.683-.25-.692-.496-.971-1.15-.971H1.285c-.727 0-.874.334-.874.709 0 .662.866 3.953 4.026 8.301 2.106 2.968 5.072 4.576 7.77 4.576 1.622 0 1.82-.357 1.82-.972 0-2.835-.147-3.103.666-3.103.376 0 1.024.186 2.539 1.618 1.73 1.697 2.014 2.457 2.983 2.457h2.547c.726 0 1.093-.357.882-1.062-.484-1.482-3.757-4.53-3.905-4.734z"/></svg><svg viewBox="0 0 24 24" id="youtube" xmlns="http://www.w3.org/2000/svg"><path d="M21.482 5.54c-.742-.888-2.113-1.254-4.732-1.254H7.246c-2.678 0-4.073.385-4.81 1.33-.722.923-.722 2.282-.722 4.162v3.586c0 3.644.856 5.493 5.534 5.493h9.504c2.27 0 3.53-.32 4.343-1.104.834-.806 1.19-2.116 1.19-4.392V9.775c0-1.983-.055-3.35-.801-4.242l-.002.008zm-6.562 6.53l-4.316 2.27a.66.66 0 01-.885-.264.671.671 0 01-.086-.328V9.223a.671.671 0 01.32-.57.66.66 0 01.65-.023l4.315 2.255a.666.666 0 01.358.593.672.672 0 01-.358.593l.002-.001z"/></svg></svg>