<svg width="32" height="32" fill="none" xmlns="http://www.w3.org/2000/svg"><path fill-rule="evenodd" clip-rule="evenodd" d="M8 5a3 3 0 00-3 3v4a3 3 0 003 3h4a3 3 0 003-3V8a3 3 0 00-3-3H8zM7 8a1 1 0 011-1h4a1 1 0 011 1v4a1 1 0 01-1 1H8a1 1 0 01-1-1V8zm1 9a3 3 0 00-3 3v4a3 3 0 003 3h4a3 3 0 003-3v-4a3 3 0 00-3-3H8zm-1 3a1 1 0 011-1h4a1 1 0 011 1v4a1 1 0 01-1 1H8a1 1 0 01-1-1v-4zm10 0a3 3 0 013-3h4a3 3 0 013 3v4a3 3 0 01-3 3h-4a3 3 0 01-3-3v-4zm3-1a1 1 0 00-1 1v4a1 1 0 001 1h4a1 1 0 001-1v-4a1 1 0 00-1-1h-4zm0-14a3 3 0 00-3 3v4a3 3 0 003 3h4a3 3 0 003-3V8a3 3 0 00-3-3h-4zm-1 3a1 1 0 011-1h4a1 1 0 011 1v4a1 1 0 01-1 1h-4a1 1 0 01-1-1V8z" fill="#131415"/></svg>