<svg width="184" height="56" fill="none" xmlns="http://www.w3.org/2000/svg"><path d="M22.508 22h7.96c.7 0 1.296.24 1.789.726.493.484.741 1.072.741 1.765v10.42h-2.402v-4.34h-8.212v4.34H20V24.49c0-.693.245-1.28.73-1.765A2.445 2.445 0 0122.509 22zm-.124 6.204H30.6v-3.713c0-.084-.043-.123-.128-.123h-7.964c-.085 0-.128.042-.128.123v3.713h.004zm25.042 4.216V22h2.401v10.42c0 .693-.248 1.28-.741 1.765a2.432 2.432 0 01-1.77.726h-7.982a2.42 2.42 0 01-1.778-.726 2.401 2.401 0 01-.73-1.766V22h2.384v10.42c0 .084.042.123.127.123h7.979c.074.004.11-.039.11-.124zM52.967 22h12.998v2.368h-5.29V34.91h-2.401V24.368h-5.307V22zm18.631 0h7.982c.685 0 1.277.24 1.77.726.494.484.742 1.072.742 1.765v7.928a2.38 2.38 0 01-.742 1.766 2.432 2.432 0 01-1.77.726h-7.982a2.42 2.42 0 01-1.777-.726 2.401 2.401 0 01-.73-1.766v-7.927c0-.694.244-1.282.73-1.767A2.426 2.426 0 0171.598 22zm0 10.547h7.982c.071 0 .107-.043.107-.124v-7.928c0-.085-.036-.124-.107-.124h-7.982c-.085 0-.127.043-.127.124v7.928c.003.081.046.124.127.124z" fill="#3C3C3B"/><path d="M93.284 22h11.952v2.368h-9.55v2.905h7.691v2.368h-7.691v5.273h-2.402V22zm17.369 0h7.961c.699 0 1.295.24 1.788.726.493.484.741 1.072.741 1.765v10.42h-2.401v-4.34h-8.216v4.34h-2.384V24.49a2.4 2.4 0 01.73-1.765 2.448 2.448 0 011.781-.726zm-.127 6.204h8.216v-3.713c0-.084-.043-.123-.128-.123h-7.961c-.085 0-.127.042-.127.123v3.713zm27.386-3.713v.988h-2.402v-.988c0-.084-.035-.123-.11-.123h-7.978c-.085 0-.128.042-.128.123v2.655c0 .085.043.124.128.124h7.978c.685 0 1.278.24 1.771.725.493.485.741 1.073.741 1.766v2.655c0 .693-.248 1.28-.741 1.766a2.433 2.433 0 01-1.771.725h-7.978a2.42 2.42 0 01-1.777-.725 2.402 2.402 0 01-.731-1.766v-.988h2.384v.988c0 .085.043.123.128.123h7.978c.071 0 .11-.042.11-.123V29.76c0-.085-.035-.124-.11-.124h-7.978c-.699 0-1.292-.24-1.778-.725a2.4 2.4 0 01-.73-1.766V24.49a2.4 2.4 0 01.73-1.765 2.421 2.421 0 011.778-.726h7.978c.685 0 1.277.24 1.77.726.493.484.738 1.075.738 1.765zm3.09-2.491H154v2.368h-5.289V34.91h-2.402V24.368h-5.307V22z" fill="#C51315"/></svg>