<svg width="32" height="32" fill="none" xmlns="http://www.w3.org/2000/svg"><path fill-rule="evenodd" clip-rule="evenodd" d="M15 3a2 2 0 00-2 2v1.424a.048.048 0 01-.008.013.146.146 0 01-.07.046 9.945 9.945 0 00-1.476.612.145.145 0 01-.08.017.05.05 0 01-.015-.004l-1.008-1.007a2 2 0 00-2.828 0L6.1 7.515a2 2 0 000 2.828l1.007 1.008a.05.05 0 01.004.014.15.15 0 01-.017.081 9.94 9.94 0 00-.612 1.477.146.146 0 01-.046.07.048.048 0 01-.013.007H5a2 2 0 00-2 2v2a2 2 0 002 2h1.424c.001 0 .006.002.013.008a.146.146 0 01.046.07c.165.51.37 1.004.612 1.476.016.031.02.061.017.08a.05.05 0 01-.004.015l-1.007 1.008a2 2 0 000 2.828L7.515 25.9a2 2 0 002.828 0l1.008-1.008a.05.05 0 01.014-.004.15.15 0 01.081.017c.472.242.965.447 1.477.612a.15.15 0 01.07.046.048.048 0 01.007.013V27a2 2 0 002 2h2a2 2 0 002-2v-1.424l.003-.007a.145.145 0 01.074-.052 9.946 9.946 0 001.477-.612.145.145 0 01.09-.015l.005.002 1.008 1.008a2 2 0 002.828 0l1.415-1.415a2 2 0 000-2.828l-1.008-1.008a.05.05 0 01-.004-.014.15.15 0 01.017-.081c.242-.472.447-.965.612-1.477a.145.145 0 01.046-.07.048.048 0 01.013-.007H27a2 2 0 002-2v-2a2 2 0 00-2-2h-1.424a.048.048 0 01-.013-.008.145.145 0 01-.046-.07 9.946 9.946 0 00-.612-1.476.145.145 0 01-.017-.08.05.05 0 01.004-.015l1.008-1.008a2 2 0 000-2.828L24.485 6.1a2 2 0 00-2.828 0l-1.008 1.007a.05.05 0 01-.014.004.15.15 0 01-.081-.017 9.945 9.945 0 00-1.477-.612.146.146 0 01-.07-.046.048.048 0 01-.007-.013V5a2 2 0 00-2-2h-2zm0 2h2v1.425c0 .951.656 1.7 1.462 1.96.409.133.803.297 1.18.49.755.387 1.748.32 2.421-.352l1.008-1.008 1.414 1.414-1.008 1.008c-.673.673-.739 1.666-.352 2.421.193.377.357.771.49 1.18.26.806 1.009 1.462 1.96 1.462H27v2h-1.424c-.952 0-1.701.656-1.962 1.462a7.943 7.943 0 01-.489 1.18c-.387.755-.32 1.748.352 2.421l1.008 1.008-1.414 1.414-1.008-1.008c-.673-.673-1.666-.739-2.421-.352a7.943 7.943 0 01-1.18.49c-.806.26-1.462 1.009-1.462 1.96V27h-2v-1.424c0-.952-.656-1.701-1.462-1.962a7.948 7.948 0 01-1.18-.489c-.755-.387-1.748-.32-2.421.352l-1.008 1.008-1.414-1.414 1.008-1.008c.673-.673.739-1.666.352-2.421a7.938 7.938 0 01-.49-1.18C8.126 17.656 7.377 17 6.426 17H5v-2h1.425c.951 0 1.7-.656 1.96-1.462.133-.409.297-.803.49-1.18.387-.755.32-1.748-.352-2.421L7.515 8.929l1.414-1.414 1.008 1.008c.673.673 1.666.739 2.421.352a7.938 7.938 0 011.18-.49C14.344 8.126 15 7.377 15 6.426V5zm-2 11a3 3 0 116 0 3 3 0 01-6 0zm3-5a5 5 0 100 10 5 5 0 000-10z" fill="#131415"/></svg>