<svg width="30" height="30" fill="none" xmlns="http://www.w3.org/2000/svg"><path d="M15 0c8.284 0 15 6.716 15 15 0 8.284-6.716 15-15 15-8.284 0-15-6.716-15-15C0 6.716 6.716 0 15 0z" fill="#7F4DA0"/><path d="M18.996 13.1c-.073-.593-.255-1.059-.578-1.471-.42-.53-.957-.849-1.752-1.037-.518-.126-.727-.111-.915.06-.174.16-.208.481-.075.69.094.15.202.205.503.264.4.074.678.17.93.313.534.309.783.792.81 1.574.012.367.044.48.172.61a.55.55 0 00.84-.093c.066-.107.076-.154.083-.403a3.96 3.96 0 00-.018-.508z" fill="#fff"/><path d="M21.09 13.767c-.105-1.816-.816-3.277-2.087-4.305a5.882 5.882 0 00-2.53-1.167c-.348-.07-.988-.126-1.098-.094a.674.674 0 00-.315.244c-.07.11-.085.355-.026.497.095.238.272.322.768.365.763.067 1.551.335 2.146.733a4.503 4.503 0 011.57 1.798c.302.624.487 1.525.482 2.33-.002.292.044.457.16.577a.538.538 0 00.663.103c.253-.133.312-.366.267-1.08zm2.318 6.993a1.993 1.993 0 00-.178-.356c-.373-.563-2.377-2.132-3.378-2.645-.571-.293-.994-.39-1.308-.3-.338.096-.515.253-1.08.956-.229.281-.462.545-.525.587-.154.107-.456.193-.669.193-.494-.003-1.391-.324-2.081-.745-.536-.326-1.223-.91-1.75-1.488-.621-.68-1.045-1.278-1.38-1.954-.431-.869-.54-1.4-.36-1.788.044-.098.103-.201.13-.234.027-.03.305-.258.613-.507.604-.48.701-.59.814-.92.142-.417.104-.844-.116-1.274a17.761 17.761 0 00-.93-1.497c-.423-.605-1.476-1.898-1.687-2.073-.379-.308-.864-.362-1.4-.154-.565.22-1.625 1.073-2.078 1.67-.409.539-.566.921-.59 1.425-.02.415.016.587.235 1.118 1.714 4.163 4.272 7.487 7.786 10.125 1.835 1.379 3.739 2.428 5.713 3.146 1.152.418 1.652.439 2.241.095.249-.148.865-.78 1.208-1.24.568-.764.779-1.117.838-1.399.041-.193.009-.528-.068-.741z" fill="#fff"/><path d="M23.222 14.184a8.272 8.272 0 00-.571-2.809c-.356-.924-.717-1.527-1.397-2.342-.644-.765-1.143-1.201-1.936-1.687-1.105-.677-2.451-1.126-3.959-1.314-.514-.066-.63-.061-.788.044-.306.2-.302.697.005.893.101.063.191.086.603.14.631.085 1.037.165 1.519.296 1.89.517 3.342 1.572 4.314 3.14.813 1.306 1.15 2.612 1.102 4.28-.017.565-.005.664.082.8.165.252.6.302.824.092.139-.128.165-.223.192-.706.013-.252.016-.624.01-.827z" fill="#fff"/></svg>