<svg width="30" height="30" fill="none" xmlns="http://www.w3.org/2000/svg"><path d="M15 30c8.284 0 15-6.716 15-15 0-8.284-6.716-15-15-15C6.716 0 0 6.716 0 15c0 8.284 6.716 15 15 15z" fill="#25D366"/><path fill-rule="evenodd" clip-rule="evenodd" d="M15.495 23.345h-.004a8.911 8.911 0 01-4.262-1.085L6.5 23.5l1.266-4.622a8.903 8.903 0 01-1.191-4.46c.002-4.917 4.003-8.918 8.92-8.918a8.862 8.862 0 016.31 2.616 8.866 8.866 0 012.61 6.31c-.003 4.917-4.003 8.917-8.92 8.92zm-4.047-2.7l.27.16a7.404 7.404 0 003.774 1.034h.003c4.086 0 7.411-3.326 7.413-7.414a7.37 7.37 0 00-2.17-5.244 7.363 7.363 0 00-5.24-2.174c-4.09 0-7.415 3.325-7.417 7.412 0 1.401.391 2.765 1.133 3.946l.177.28-.75 2.736 2.807-.736zm8.235-4.299c.155.075.26.126.305.2.056.094.056.54-.13 1.06-.186.521-1.076.996-1.504 1.06-.384.058-.87.082-1.404-.088a12.81 12.81 0 01-1.27-.47c-2.09-.902-3.502-2.927-3.768-3.31a2.331 2.331 0 00-.04-.055l-.001-.002c-.118-.157-.909-1.212-.909-2.303 0-1.027.505-1.565.737-1.812l.043-.047a.819.819 0 01.595-.28c.148 0 .297.002.427.009h.05c.13 0 .292-.001.451.382l.247.598c.191.467.403.982.44 1.057.056.112.093.242.02.39a8.633 8.633 0 00-.032.064c-.056.114-.097.198-.192.308l-.114.138a3.672 3.672 0 01-.22.253c-.112.111-.228.232-.098.455s.577.953 1.24 1.543c.712.636 1.331.904 1.645 1.04.061.027.11.048.147.067.223.111.353.093.483-.056s.557-.65.706-.874c.148-.223.297-.186.501-.111.205.074 1.3.613 1.523.725l.122.06z" fill="#FDFDFD"/></svg>